%TF.GenerationSoftware,KiCad,Pcbnew,6.0.9*%
%TF.CreationDate,2022-11-22T22:01:47-08:00*%
%TF.ProjectId,dcpunks31,64637075-6e6b-4733-9331-2e6b69636164,rev?*%
%TF.SameCoordinates,Original*%
%TF.FileFunction,Drillmap*%
%TF.FilePolarity,Positive*%
%FSLAX45Y45*%
G04 Gerber Fmt 4.5, Leading zero omitted, Abs format (unit mm)*
G04 Created by KiCad (PCBNEW 6.0.9) date 2022-11-22 22:01:47*
%MOMM*%
%LPD*%
G01*
G04 APERTURE LIST*
%ADD10C,0.100000*%
%ADD11C,0.200000*%
%ADD12C,0.040000*%
%ADD13C,0.090000*%
%ADD14C,0.110000*%
%ADD15C,0.120000*%
G04 APERTURE END LIST*
D10*
X14655000Y-4846000D02*
X14592000Y-4798000D01*
X10963000Y-6800000D02*
X10673000Y-7119000D01*
X13885000Y-14411000D02*
X14562000Y-14351000D01*
X14592000Y-4798000D02*
X14295000Y-4575000D01*
X9812000Y-11296000D02*
X9965000Y-11869000D01*
X15287000Y-5419000D02*
X15012000Y-5221000D01*
X15762000Y-14012000D02*
X16470000Y-13752000D01*
X16028000Y-5724000D02*
X15420000Y-5569000D01*
X12651000Y-5621000D02*
X12223000Y-5821000D01*
X9965000Y-11869000D02*
X10162000Y-12451000D01*
X11375000Y-6407000D02*
X10963000Y-6800000D01*
X13018000Y-5501000D02*
X12651000Y-5621000D01*
X14562000Y-14351000D02*
X15075000Y-14228000D01*
X18836000Y-9836000D02*
X18862000Y-9584000D01*
X14042000Y-4519000D02*
X13707000Y-4616000D01*
X17600000Y-13142000D02*
X17784000Y-12917000D01*
X10218000Y-7792000D02*
X10126000Y-8092000D01*
X14834000Y-5085000D02*
X14655000Y-4846000D01*
X10343000Y-7609000D02*
X10218000Y-7792000D01*
X13415000Y-5196000D02*
X13484000Y-5365000D01*
X18605000Y-8427000D02*
X18401000Y-7860000D01*
X10162000Y-12451000D02*
X10480000Y-12919000D01*
X15012000Y-5221000D02*
X14834000Y-5085000D01*
X9703000Y-10216000D02*
X9718000Y-10752000D01*
X10126000Y-8092000D02*
X9892000Y-8859000D01*
X12498000Y-14299000D02*
X13170000Y-14413000D01*
X9733000Y-9546000D02*
X9703000Y-10216000D01*
X14295000Y-4575000D02*
X14042000Y-4519000D01*
X18401000Y-7860000D02*
X18173000Y-7420000D01*
X16576000Y-5906000D02*
X16028000Y-5724000D01*
X15075000Y-14228000D02*
X15762000Y-14012000D01*
X17890000Y-12775000D02*
X18184000Y-12345000D01*
X13432000Y-4938000D02*
X13415000Y-5196000D01*
X18665000Y-11184000D02*
X18836000Y-9836000D01*
X13576000Y-4762000D02*
X13432000Y-4938000D01*
X9892000Y-8859000D02*
X9733000Y-9546000D01*
X17578000Y-6518000D02*
X17196000Y-6291000D01*
X18596000Y-11540000D02*
X18665000Y-11184000D01*
X11785000Y-6082000D02*
X11375000Y-6407000D01*
X13707000Y-4616000D02*
X13576000Y-4762000D01*
X18862000Y-9584000D02*
X18766000Y-9157000D01*
X18184000Y-12345000D02*
X18319000Y-12165000D01*
X9718000Y-10752000D02*
X9812000Y-11296000D01*
X13544000Y-5432000D02*
X13479000Y-5443000D01*
X11304000Y-13726000D02*
X11944000Y-14104000D01*
X16932000Y-13518000D02*
X17600000Y-13142000D01*
X15420000Y-5569000D02*
X15287000Y-5419000D01*
X13170000Y-14413000D02*
X13529000Y-14435000D01*
X17784000Y-12917000D02*
X17890000Y-12775000D01*
X11944000Y-14104000D02*
X12498000Y-14299000D01*
X18173000Y-7420000D02*
X17578000Y-6518000D01*
X18319000Y-12165000D02*
X18596000Y-11540000D01*
X10480000Y-12919000D02*
X10864000Y-13395000D01*
X17196000Y-6291000D02*
X16576000Y-5906000D01*
X10673000Y-7119000D02*
X10343000Y-7609000D01*
X18766000Y-9157000D02*
X18605000Y-8427000D01*
X10864000Y-13395000D02*
X11304000Y-13726000D01*
X13479000Y-5443000D02*
X13018000Y-5501000D01*
X14282843Y-5100000D02*
G75*
G03*
X14282843Y-5100000I-282843J0D01*
G01*
X16470000Y-13752000D02*
X16932000Y-13518000D01*
X13529000Y-14435000D02*
X13885000Y-14411000D01*
X13484000Y-5365000D02*
X13544000Y-5432000D01*
X12223000Y-5821000D02*
X11785000Y-6082000D01*
D11*
D12*
X10682000Y-10498000D02*
X10722000Y-10538000D01*
X10722000Y-10498000D02*
X10682000Y-10538000D01*
X10997000Y-9027000D02*
X11037000Y-9067000D01*
X11037000Y-9027000D02*
X10997000Y-9067000D01*
X11105550Y-11999000D02*
X11145550Y-12039000D01*
X11145550Y-11999000D02*
X11105550Y-12039000D01*
X11416000Y-8275000D02*
X11456000Y-8315000D01*
X11456000Y-8275000D02*
X11416000Y-8315000D01*
X11427000Y-12598000D02*
X11467000Y-12638000D01*
X11467000Y-12598000D02*
X11427000Y-12638000D01*
X11486286Y-9663286D02*
X11526286Y-9703286D01*
X11526286Y-9663286D02*
X11486286Y-9703286D01*
X11500000Y-9534000D02*
X11540000Y-9574000D01*
X11540000Y-9534000D02*
X11500000Y-9574000D01*
X11512000Y-11958000D02*
X11552000Y-11998000D01*
X11552000Y-11958000D02*
X11512000Y-11998000D01*
X11727000Y-9737000D02*
X11767000Y-9777000D01*
X11767000Y-9737000D02*
X11727000Y-9777000D01*
X11733567Y-9626559D02*
X11773567Y-9666559D01*
X11773567Y-9626559D02*
X11733567Y-9666559D01*
X11786563Y-9840550D02*
X11826563Y-9880550D01*
X11826563Y-9840550D02*
X11786563Y-9880550D01*
X11838036Y-9735036D02*
X11878036Y-9775036D01*
X11878036Y-9735036D02*
X11838036Y-9775036D01*
X12200000Y-11136000D02*
X12240000Y-11176000D01*
X12240000Y-11136000D02*
X12200000Y-11176000D01*
X12247000Y-7134000D02*
X12287000Y-7174000D01*
X12287000Y-7134000D02*
X12247000Y-7174000D01*
X12250000Y-8145000D02*
X12290000Y-8185000D01*
X12290000Y-8145000D02*
X12250000Y-8185000D01*
X12256000Y-8271000D02*
X12296000Y-8311000D01*
X12296000Y-8271000D02*
X12256000Y-8311000D01*
X12329000Y-9895000D02*
X12369000Y-9935000D01*
X12369000Y-9895000D02*
X12329000Y-9935000D01*
X12402950Y-8153000D02*
X12442950Y-8193000D01*
X12442950Y-8153000D02*
X12402950Y-8193000D01*
X12585000Y-7862000D02*
X12625000Y-7902000D01*
X12625000Y-7862000D02*
X12585000Y-7902000D01*
X12648000Y-7477000D02*
X12688000Y-7517000D01*
X12688000Y-7477000D02*
X12648000Y-7517000D01*
X12969000Y-7220000D02*
X13009000Y-7260000D01*
X13009000Y-7220000D02*
X12969000Y-7260000D01*
X12993000Y-8591000D02*
X13033000Y-8631000D01*
X13033000Y-8591000D02*
X12993000Y-8631000D01*
X13057000Y-9186000D02*
X13097000Y-9226000D01*
X13097000Y-9186000D02*
X13057000Y-9226000D01*
X13145000Y-9850000D02*
X13185000Y-9890000D01*
X13185000Y-9850000D02*
X13145000Y-9890000D01*
X13202000Y-6517000D02*
X13242000Y-6557000D01*
X13242000Y-6517000D02*
X13202000Y-6557000D01*
X13351000Y-11575000D02*
X13391000Y-11615000D01*
X13391000Y-11575000D02*
X13351000Y-11615000D01*
X13449000Y-12496000D02*
X13489000Y-12536000D01*
X13489000Y-12496000D02*
X13449000Y-12536000D01*
X13677000Y-6991000D02*
X13717000Y-7031000D01*
X13717000Y-6991000D02*
X13677000Y-7031000D01*
X13708000Y-8540000D02*
X13748000Y-8580000D01*
X13748000Y-8540000D02*
X13708000Y-8580000D01*
X13740000Y-9319000D02*
X13780000Y-9359000D01*
X13780000Y-9319000D02*
X13740000Y-9359000D01*
X13918000Y-6558000D02*
X13958000Y-6598000D01*
X13958000Y-6558000D02*
X13918000Y-6598000D01*
X14236000Y-8015000D02*
X14276000Y-8055000D01*
X14276000Y-8015000D02*
X14236000Y-8055000D01*
X14374000Y-6187000D02*
X14414000Y-6227000D01*
X14414000Y-6187000D02*
X14374000Y-6227000D01*
X14385000Y-6586000D02*
X14425000Y-6626000D01*
X14425000Y-6586000D02*
X14385000Y-6626000D01*
X14501000Y-6492000D02*
X14541000Y-6532000D01*
X14541000Y-6492000D02*
X14501000Y-6532000D01*
X14529000Y-6145000D02*
X14569000Y-6185000D01*
X14569000Y-6145000D02*
X14529000Y-6185000D01*
X14588000Y-9293000D02*
X14628000Y-9333000D01*
X14628000Y-9293000D02*
X14588000Y-9333000D01*
X15006000Y-8388000D02*
X15046000Y-8428000D01*
X15046000Y-8388000D02*
X15006000Y-8428000D01*
X15136000Y-6678000D02*
X15176000Y-6718000D01*
X15176000Y-6678000D02*
X15136000Y-6718000D01*
X15639000Y-10142000D02*
X15679000Y-10182000D01*
X15679000Y-10142000D02*
X15639000Y-10182000D01*
X15734000Y-8681000D02*
X15774000Y-8721000D01*
X15774000Y-8681000D02*
X15734000Y-8721000D01*
X15858000Y-7131000D02*
X15898000Y-7171000D01*
X15898000Y-7131000D02*
X15858000Y-7171000D01*
X15876000Y-8036000D02*
X15916000Y-8076000D01*
X15916000Y-8036000D02*
X15876000Y-8076000D01*
X15984813Y-9242813D02*
X16024813Y-9282813D01*
X16024813Y-9242813D02*
X15984813Y-9282813D01*
X16038000Y-12501000D02*
X16078000Y-12541000D01*
X16078000Y-12501000D02*
X16038000Y-12541000D01*
X16058313Y-9169313D02*
X16098313Y-9209313D01*
X16098313Y-9169313D02*
X16058313Y-9209313D01*
X16209000Y-9850000D02*
X16249000Y-9890000D01*
X16249000Y-9850000D02*
X16209000Y-9890000D01*
X16223700Y-8478000D02*
X16263700Y-8518000D01*
X16263700Y-8478000D02*
X16223700Y-8518000D01*
X16223700Y-8731473D02*
X16263700Y-8771473D01*
X16263700Y-8731473D02*
X16223700Y-8771473D01*
X16255000Y-6605000D02*
X16295000Y-6645000D01*
X16295000Y-6605000D02*
X16255000Y-6645000D01*
X16293687Y-9141687D02*
X16333687Y-9181687D01*
X16333687Y-9141687D02*
X16293687Y-9181687D01*
X16294000Y-8593000D02*
X16334000Y-8633000D01*
X16334000Y-8593000D02*
X16294000Y-8633000D01*
X16335466Y-8739365D02*
X16375466Y-8779365D01*
X16375466Y-8739365D02*
X16335466Y-8779365D01*
X16901647Y-8779550D02*
X16941647Y-8819550D01*
X16941647Y-8779550D02*
X16901647Y-8819550D01*
X16930000Y-9559000D02*
X16970000Y-9599000D01*
X16970000Y-9559000D02*
X16930000Y-9599000D01*
X16981000Y-8314000D02*
X17021000Y-8354000D01*
X17021000Y-8314000D02*
X16981000Y-8354000D01*
X16983841Y-8720940D02*
X17023841Y-8760940D01*
X17023841Y-8720940D02*
X16983841Y-8760940D01*
X16985563Y-8415563D02*
X17025563Y-8455563D01*
X17025563Y-8415563D02*
X16985563Y-8455563D01*
X16988356Y-8202769D02*
X17028356Y-8242769D01*
X17028356Y-8202769D02*
X16988356Y-8242769D01*
X16997000Y-8829550D02*
X17037000Y-8869550D01*
X17037000Y-8829550D02*
X16997000Y-8869550D01*
X17022000Y-7337000D02*
X17062000Y-7377000D01*
X17062000Y-7337000D02*
X17022000Y-7377000D01*
X17168000Y-8466000D02*
X17208000Y-8506000D01*
X17208000Y-8466000D02*
X17168000Y-8506000D01*
X17200000Y-8672000D02*
X17240000Y-8712000D01*
X17240000Y-8672000D02*
X17200000Y-8712000D01*
X17812000Y-11106000D02*
X17852000Y-11146000D01*
X17852000Y-11106000D02*
X17812000Y-11146000D01*
X18091000Y-8154000D02*
X18131000Y-8194000D01*
X18131000Y-8154000D02*
X18091000Y-8194000D01*
X18190000Y-7843000D02*
X18230000Y-7883000D01*
X18230000Y-7843000D02*
X18190000Y-7883000D01*
X18219000Y-9815000D02*
X18259000Y-9855000D01*
X18259000Y-9815000D02*
X18219000Y-9855000D01*
D13*
X10008500Y-10143000D02*
G75*
G03*
X10008500Y-10143000I-45000J0D01*
G01*
X10262500Y-10143000D02*
G75*
G03*
X10262500Y-10143000I-45000J0D01*
G01*
X11255500Y-13053000D02*
G75*
G03*
X11255500Y-13053000I-45000J0D01*
G01*
X11430500Y-10220000D02*
G75*
G03*
X11430500Y-10220000I-45000J0D01*
G01*
X11509500Y-13053000D02*
G75*
G03*
X11509500Y-13053000I-45000J0D01*
G01*
X11684500Y-10220000D02*
G75*
G03*
X11684500Y-10220000I-45000J0D01*
G01*
X12009500Y-11904000D02*
G75*
G03*
X12009500Y-11904000I-45000J0D01*
G01*
X12263500Y-11904000D02*
G75*
G03*
X12263500Y-11904000I-45000J0D01*
G01*
X12345500Y-6229000D02*
G75*
G03*
X12345500Y-6229000I-45000J0D01*
G01*
X12599500Y-6229000D02*
G75*
G03*
X12599500Y-6229000I-45000J0D01*
G01*
X12772000Y-10395000D02*
G75*
G03*
X12772000Y-10395000I-45000J0D01*
G01*
X13026000Y-10395000D02*
G75*
G03*
X13026000Y-10395000I-45000J0D01*
G01*
X13140500Y-7493000D02*
G75*
G03*
X13140500Y-7493000I-45000J0D01*
G01*
X13394500Y-7493000D02*
G75*
G03*
X13394500Y-7493000I-45000J0D01*
G01*
X13877000Y-10042000D02*
G75*
G03*
X13877000Y-10042000I-45000J0D01*
G01*
X14124500Y-8635000D02*
G75*
G03*
X14124500Y-8635000I-45000J0D01*
G01*
X14131000Y-10042000D02*
G75*
G03*
X14131000Y-10042000I-45000J0D01*
G01*
X14378500Y-8635000D02*
G75*
G03*
X14378500Y-8635000I-45000J0D01*
G01*
X14860500Y-10556000D02*
G75*
G03*
X14860500Y-10556000I-45000J0D01*
G01*
X15083500Y-7458000D02*
G75*
G03*
X15083500Y-7458000I-45000J0D01*
G01*
X15114500Y-10556000D02*
G75*
G03*
X15114500Y-10556000I-45000J0D01*
G01*
X15337500Y-7458000D02*
G75*
G03*
X15337500Y-7458000I-45000J0D01*
G01*
X15400500Y-11970000D02*
G75*
G03*
X15400500Y-11970000I-45000J0D01*
G01*
X15654500Y-11970000D02*
G75*
G03*
X15654500Y-11970000I-45000J0D01*
G01*
X15980500Y-6229000D02*
G75*
G03*
X15980500Y-6229000I-45000J0D01*
G01*
X16031000Y-13359000D02*
G75*
G03*
X16031000Y-13359000I-45000J0D01*
G01*
X16234500Y-6229000D02*
G75*
G03*
X16234500Y-6229000I-45000J0D01*
G01*
X16285000Y-13359000D02*
G75*
G03*
X16285000Y-13359000I-45000J0D01*
G01*
X16494500Y-10745000D02*
G75*
G03*
X16494500Y-10745000I-45000J0D01*
G01*
X16748500Y-10745000D02*
G75*
G03*
X16748500Y-10745000I-45000J0D01*
G01*
X17299139Y-12517322D02*
G75*
G03*
X17299139Y-12517322I-45000J0D01*
G01*
X17528569Y-12189661D02*
G75*
G03*
X17528569Y-12189661I-45000J0D01*
G01*
X17758000Y-11862000D02*
G75*
G03*
X17758000Y-11862000I-45000J0D01*
G01*
X18134500Y-11007000D02*
G75*
G03*
X18134500Y-11007000I-45000J0D01*
G01*
X18388500Y-11007000D02*
G75*
G03*
X18388500Y-11007000I-45000J0D01*
G01*
D14*
X13001000Y-6312000D02*
X13001000Y-6422000D01*
X12946000Y-6367000D02*
X13056000Y-6367000D01*
X13001000Y-6812000D02*
X13001000Y-6922000D01*
X12946000Y-6867000D02*
X13056000Y-6867000D01*
X13501000Y-6562000D02*
X13501000Y-6672000D01*
X13446000Y-6617000D02*
X13556000Y-6617000D01*
X15059000Y-5924000D02*
X15059000Y-6034000D01*
X15004000Y-5979000D02*
X15114000Y-5979000D01*
X15309000Y-6424000D02*
X15309000Y-6534000D01*
X15254000Y-6479000D02*
X15364000Y-6479000D01*
X15559000Y-5924000D02*
X15559000Y-6034000D01*
X15504000Y-5979000D02*
X15614000Y-5979000D01*
D15*
X16486927Y-11457427D02*
X16486927Y-11372573D01*
X16402073Y-11372573D01*
X16402073Y-11457427D01*
X16486927Y-11457427D01*
X16486927Y-12727427D02*
X16486927Y-12642573D01*
X16402073Y-12642573D01*
X16402073Y-12727427D01*
X16486927Y-12727427D01*
X17038499Y-12623203D02*
X17038499Y-12538349D01*
X16953645Y-12538349D01*
X16953645Y-12623203D01*
X17038499Y-12623203D01*
X17529990Y-12967349D02*
X17529990Y-12882495D01*
X17445136Y-12882495D01*
X17445136Y-12967349D01*
X17529990Y-12967349D01*
X17726791Y-11640220D02*
X17726791Y-11555367D01*
X17641937Y-11555367D01*
X17641937Y-11640220D01*
X17726791Y-11640220D01*
X18218282Y-11984366D02*
X18218282Y-11899513D01*
X18133428Y-11899513D01*
X18133428Y-11984366D01*
X18218282Y-11984366D01*
D11*
X9955619Y-14750476D02*
X9955619Y-14550476D01*
X10003238Y-14550476D01*
X10031810Y-14560000D01*
X10050857Y-14579048D01*
X10060381Y-14598095D01*
X10069905Y-14636190D01*
X10069905Y-14664762D01*
X10060381Y-14702857D01*
X10050857Y-14721905D01*
X10031810Y-14740952D01*
X10003238Y-14750476D01*
X9955619Y-14750476D01*
X10155619Y-14750476D02*
X10155619Y-14617143D01*
X10155619Y-14655238D02*
X10165143Y-14636190D01*
X10174667Y-14626667D01*
X10193714Y-14617143D01*
X10212762Y-14617143D01*
X10279429Y-14750476D02*
X10279429Y-14617143D01*
X10279429Y-14550476D02*
X10269905Y-14560000D01*
X10279429Y-14569524D01*
X10288952Y-14560000D01*
X10279429Y-14550476D01*
X10279429Y-14569524D01*
X10403238Y-14750476D02*
X10384190Y-14740952D01*
X10374667Y-14721905D01*
X10374667Y-14550476D01*
X10508000Y-14750476D02*
X10488952Y-14740952D01*
X10479429Y-14721905D01*
X10479429Y-14550476D01*
X10736571Y-14750476D02*
X10736571Y-14550476D01*
X10803238Y-14693333D01*
X10869905Y-14550476D01*
X10869905Y-14750476D01*
X11050857Y-14750476D02*
X11050857Y-14645714D01*
X11041333Y-14626667D01*
X11022286Y-14617143D01*
X10984190Y-14617143D01*
X10965143Y-14626667D01*
X11050857Y-14740952D02*
X11031810Y-14750476D01*
X10984190Y-14750476D01*
X10965143Y-14740952D01*
X10955619Y-14721905D01*
X10955619Y-14702857D01*
X10965143Y-14683809D01*
X10984190Y-14674286D01*
X11031810Y-14674286D01*
X11050857Y-14664762D01*
X11146095Y-14617143D02*
X11146095Y-14817143D01*
X11146095Y-14626667D02*
X11165143Y-14617143D01*
X11203238Y-14617143D01*
X11222286Y-14626667D01*
X11231809Y-14636190D01*
X11241333Y-14655238D01*
X11241333Y-14712381D01*
X11231809Y-14731428D01*
X11222286Y-14740952D01*
X11203238Y-14750476D01*
X11165143Y-14750476D01*
X11146095Y-14740952D01*
X11327048Y-14731428D02*
X11336571Y-14740952D01*
X11327048Y-14750476D01*
X11317524Y-14740952D01*
X11327048Y-14731428D01*
X11327048Y-14750476D01*
X11327048Y-14626667D02*
X11336571Y-14636190D01*
X11327048Y-14645714D01*
X11317524Y-14636190D01*
X11327048Y-14626667D01*
X11327048Y-14645714D01*
D12*
X9658000Y-15060000D02*
X9698000Y-15100000D01*
X9698000Y-15060000D02*
X9658000Y-15100000D01*
D11*
X9993714Y-14970476D02*
X10012762Y-14970476D01*
X10031810Y-14980000D01*
X10041333Y-14989524D01*
X10050857Y-15008571D01*
X10060381Y-15046667D01*
X10060381Y-15094286D01*
X10050857Y-15132381D01*
X10041333Y-15151428D01*
X10031810Y-15160952D01*
X10012762Y-15170476D01*
X9993714Y-15170476D01*
X9974667Y-15160952D01*
X9965143Y-15151428D01*
X9955619Y-15132381D01*
X9946095Y-15094286D01*
X9946095Y-15046667D01*
X9955619Y-15008571D01*
X9965143Y-14989524D01*
X9974667Y-14980000D01*
X9993714Y-14970476D01*
X10146095Y-15151428D02*
X10155619Y-15160952D01*
X10146095Y-15170476D01*
X10136571Y-15160952D01*
X10146095Y-15151428D01*
X10146095Y-15170476D01*
X10327048Y-15037143D02*
X10327048Y-15170476D01*
X10279429Y-14960952D02*
X10231810Y-15103809D01*
X10355619Y-15103809D01*
X10469905Y-14970476D02*
X10488952Y-14970476D01*
X10508000Y-14980000D01*
X10517524Y-14989524D01*
X10527048Y-15008571D01*
X10536571Y-15046667D01*
X10536571Y-15094286D01*
X10527048Y-15132381D01*
X10517524Y-15151428D01*
X10508000Y-15160952D01*
X10488952Y-15170476D01*
X10469905Y-15170476D01*
X10450857Y-15160952D01*
X10441333Y-15151428D01*
X10431810Y-15132381D01*
X10422286Y-15094286D01*
X10422286Y-15046667D01*
X10431810Y-15008571D01*
X10441333Y-14989524D01*
X10450857Y-14980000D01*
X10469905Y-14970476D01*
X10660381Y-14970476D02*
X10679429Y-14970476D01*
X10698476Y-14980000D01*
X10708000Y-14989524D01*
X10717524Y-15008571D01*
X10727048Y-15046667D01*
X10727048Y-15094286D01*
X10717524Y-15132381D01*
X10708000Y-15151428D01*
X10698476Y-15160952D01*
X10679429Y-15170476D01*
X10660381Y-15170476D01*
X10641333Y-15160952D01*
X10631810Y-15151428D01*
X10622286Y-15132381D01*
X10612762Y-15094286D01*
X10612762Y-15046667D01*
X10622286Y-15008571D01*
X10631810Y-14989524D01*
X10641333Y-14980000D01*
X10660381Y-14970476D01*
X10812762Y-15170476D02*
X10812762Y-15037143D01*
X10812762Y-15056190D02*
X10822286Y-15046667D01*
X10841333Y-15037143D01*
X10869905Y-15037143D01*
X10888952Y-15046667D01*
X10898476Y-15065714D01*
X10898476Y-15170476D01*
X10898476Y-15065714D02*
X10908000Y-15046667D01*
X10927048Y-15037143D01*
X10955619Y-15037143D01*
X10974667Y-15046667D01*
X10984190Y-15065714D01*
X10984190Y-15170476D01*
X11079429Y-15170476D02*
X11079429Y-15037143D01*
X11079429Y-15056190D02*
X11088952Y-15046667D01*
X11108000Y-15037143D01*
X11136571Y-15037143D01*
X11155619Y-15046667D01*
X11165143Y-15065714D01*
X11165143Y-15170476D01*
X11165143Y-15065714D02*
X11174667Y-15046667D01*
X11193714Y-15037143D01*
X11222286Y-15037143D01*
X11241333Y-15046667D01*
X11250857Y-15065714D01*
X11250857Y-15170476D01*
X11641333Y-14960952D02*
X11469905Y-15218095D01*
X11898476Y-14970476D02*
X11917524Y-14970476D01*
X11936571Y-14980000D01*
X11946095Y-14989524D01*
X11955619Y-15008571D01*
X11965143Y-15046667D01*
X11965143Y-15094286D01*
X11955619Y-15132381D01*
X11946095Y-15151428D01*
X11936571Y-15160952D01*
X11917524Y-15170476D01*
X11898476Y-15170476D01*
X11879428Y-15160952D01*
X11869905Y-15151428D01*
X11860381Y-15132381D01*
X11850857Y-15094286D01*
X11850857Y-15046667D01*
X11860381Y-15008571D01*
X11869905Y-14989524D01*
X11879428Y-14980000D01*
X11898476Y-14970476D01*
X12050857Y-15151428D02*
X12060381Y-15160952D01*
X12050857Y-15170476D01*
X12041333Y-15160952D01*
X12050857Y-15151428D01*
X12050857Y-15170476D01*
X12184190Y-14970476D02*
X12203238Y-14970476D01*
X12222286Y-14980000D01*
X12231809Y-14989524D01*
X12241333Y-15008571D01*
X12250857Y-15046667D01*
X12250857Y-15094286D01*
X12241333Y-15132381D01*
X12231809Y-15151428D01*
X12222286Y-15160952D01*
X12203238Y-15170476D01*
X12184190Y-15170476D01*
X12165143Y-15160952D01*
X12155619Y-15151428D01*
X12146095Y-15132381D01*
X12136571Y-15094286D01*
X12136571Y-15046667D01*
X12146095Y-15008571D01*
X12155619Y-14989524D01*
X12165143Y-14980000D01*
X12184190Y-14970476D01*
X12441333Y-15170476D02*
X12327048Y-15170476D01*
X12384190Y-15170476D02*
X12384190Y-14970476D01*
X12365143Y-14999048D01*
X12346095Y-15018095D01*
X12327048Y-15027619D01*
X12622286Y-14970476D02*
X12527048Y-14970476D01*
X12517524Y-15065714D01*
X12527048Y-15056190D01*
X12546095Y-15046667D01*
X12593714Y-15046667D01*
X12612762Y-15056190D01*
X12622286Y-15065714D01*
X12631809Y-15084762D01*
X12631809Y-15132381D01*
X12622286Y-15151428D01*
X12612762Y-15160952D01*
X12593714Y-15170476D01*
X12546095Y-15170476D01*
X12527048Y-15160952D01*
X12517524Y-15151428D01*
X12698476Y-14970476D02*
X12831809Y-14970476D01*
X12746095Y-15170476D01*
X12898476Y-14970476D02*
X12898476Y-15008571D01*
X12974667Y-14970476D02*
X12974667Y-15008571D01*
X13269905Y-15246667D02*
X13260381Y-15237143D01*
X13241333Y-15208571D01*
X13231809Y-15189524D01*
X13222286Y-15160952D01*
X13212762Y-15113333D01*
X13212762Y-15075238D01*
X13222286Y-15027619D01*
X13231809Y-14999048D01*
X13241333Y-14980000D01*
X13260381Y-14951428D01*
X13269905Y-14941905D01*
X13431809Y-14970476D02*
X13393714Y-14970476D01*
X13374667Y-14980000D01*
X13365143Y-14989524D01*
X13346095Y-15018095D01*
X13336571Y-15056190D01*
X13336571Y-15132381D01*
X13346095Y-15151428D01*
X13355619Y-15160952D01*
X13374667Y-15170476D01*
X13412762Y-15170476D01*
X13431809Y-15160952D01*
X13441333Y-15151428D01*
X13450857Y-15132381D01*
X13450857Y-15084762D01*
X13441333Y-15065714D01*
X13431809Y-15056190D01*
X13412762Y-15046667D01*
X13374667Y-15046667D01*
X13355619Y-15056190D01*
X13346095Y-15065714D01*
X13336571Y-15084762D01*
X13517524Y-14970476D02*
X13650857Y-14970476D01*
X13565143Y-15170476D01*
X13879428Y-15170476D02*
X13879428Y-14970476D01*
X13965143Y-15170476D02*
X13965143Y-15065714D01*
X13955619Y-15046667D01*
X13936571Y-15037143D01*
X13908000Y-15037143D01*
X13888952Y-15046667D01*
X13879428Y-15056190D01*
X14088952Y-15170476D02*
X14069905Y-15160952D01*
X14060381Y-15151428D01*
X14050857Y-15132381D01*
X14050857Y-15075238D01*
X14060381Y-15056190D01*
X14069905Y-15046667D01*
X14088952Y-15037143D01*
X14117524Y-15037143D01*
X14136571Y-15046667D01*
X14146095Y-15056190D01*
X14155619Y-15075238D01*
X14155619Y-15132381D01*
X14146095Y-15151428D01*
X14136571Y-15160952D01*
X14117524Y-15170476D01*
X14088952Y-15170476D01*
X14269905Y-15170476D02*
X14250857Y-15160952D01*
X14241333Y-15141905D01*
X14241333Y-14970476D01*
X14422286Y-15160952D02*
X14403238Y-15170476D01*
X14365143Y-15170476D01*
X14346095Y-15160952D01*
X14336571Y-15141905D01*
X14336571Y-15065714D01*
X14346095Y-15046667D01*
X14365143Y-15037143D01*
X14403238Y-15037143D01*
X14422286Y-15046667D01*
X14431809Y-15065714D01*
X14431809Y-15084762D01*
X14336571Y-15103809D01*
X14508000Y-15160952D02*
X14527048Y-15170476D01*
X14565143Y-15170476D01*
X14584190Y-15160952D01*
X14593714Y-15141905D01*
X14593714Y-15132381D01*
X14584190Y-15113333D01*
X14565143Y-15103809D01*
X14536571Y-15103809D01*
X14517524Y-15094286D01*
X14508000Y-15075238D01*
X14508000Y-15065714D01*
X14517524Y-15046667D01*
X14536571Y-15037143D01*
X14565143Y-15037143D01*
X14584190Y-15046667D01*
X14660381Y-15246667D02*
X14669905Y-15237143D01*
X14688952Y-15208571D01*
X14698476Y-15189524D01*
X14708000Y-15160952D01*
X14717524Y-15113333D01*
X14717524Y-15075238D01*
X14708000Y-15027619D01*
X14698476Y-14999048D01*
X14688952Y-14980000D01*
X14669905Y-14951428D01*
X14660381Y-14941905D01*
D13*
X9698000Y-15344000D02*
G75*
G03*
X9698000Y-15344000I-45000J0D01*
G01*
D11*
X9993714Y-15234476D02*
X10012762Y-15234476D01*
X10031810Y-15244000D01*
X10041333Y-15253524D01*
X10050857Y-15272571D01*
X10060381Y-15310667D01*
X10060381Y-15358286D01*
X10050857Y-15396381D01*
X10041333Y-15415428D01*
X10031810Y-15424952D01*
X10012762Y-15434476D01*
X9993714Y-15434476D01*
X9974667Y-15424952D01*
X9965143Y-15415428D01*
X9955619Y-15396381D01*
X9946095Y-15358286D01*
X9946095Y-15310667D01*
X9955619Y-15272571D01*
X9965143Y-15253524D01*
X9974667Y-15244000D01*
X9993714Y-15234476D01*
X10146095Y-15415428D02*
X10155619Y-15424952D01*
X10146095Y-15434476D01*
X10136571Y-15424952D01*
X10146095Y-15415428D01*
X10146095Y-15434476D01*
X10250857Y-15434476D02*
X10288952Y-15434476D01*
X10308000Y-15424952D01*
X10317524Y-15415428D01*
X10336571Y-15386857D01*
X10346095Y-15348762D01*
X10346095Y-15272571D01*
X10336571Y-15253524D01*
X10327048Y-15244000D01*
X10308000Y-15234476D01*
X10269905Y-15234476D01*
X10250857Y-15244000D01*
X10241333Y-15253524D01*
X10231810Y-15272571D01*
X10231810Y-15320190D01*
X10241333Y-15339238D01*
X10250857Y-15348762D01*
X10269905Y-15358286D01*
X10308000Y-15358286D01*
X10327048Y-15348762D01*
X10336571Y-15339238D01*
X10346095Y-15320190D01*
X10469905Y-15234476D02*
X10488952Y-15234476D01*
X10508000Y-15244000D01*
X10517524Y-15253524D01*
X10527048Y-15272571D01*
X10536571Y-15310667D01*
X10536571Y-15358286D01*
X10527048Y-15396381D01*
X10517524Y-15415428D01*
X10508000Y-15424952D01*
X10488952Y-15434476D01*
X10469905Y-15434476D01*
X10450857Y-15424952D01*
X10441333Y-15415428D01*
X10431810Y-15396381D01*
X10422286Y-15358286D01*
X10422286Y-15310667D01*
X10431810Y-15272571D01*
X10441333Y-15253524D01*
X10450857Y-15244000D01*
X10469905Y-15234476D01*
X10660381Y-15234476D02*
X10679429Y-15234476D01*
X10698476Y-15244000D01*
X10708000Y-15253524D01*
X10717524Y-15272571D01*
X10727048Y-15310667D01*
X10727048Y-15358286D01*
X10717524Y-15396381D01*
X10708000Y-15415428D01*
X10698476Y-15424952D01*
X10679429Y-15434476D01*
X10660381Y-15434476D01*
X10641333Y-15424952D01*
X10631810Y-15415428D01*
X10622286Y-15396381D01*
X10612762Y-15358286D01*
X10612762Y-15310667D01*
X10622286Y-15272571D01*
X10631810Y-15253524D01*
X10641333Y-15244000D01*
X10660381Y-15234476D01*
X10812762Y-15434476D02*
X10812762Y-15301143D01*
X10812762Y-15320190D02*
X10822286Y-15310667D01*
X10841333Y-15301143D01*
X10869905Y-15301143D01*
X10888952Y-15310667D01*
X10898476Y-15329714D01*
X10898476Y-15434476D01*
X10898476Y-15329714D02*
X10908000Y-15310667D01*
X10927048Y-15301143D01*
X10955619Y-15301143D01*
X10974667Y-15310667D01*
X10984190Y-15329714D01*
X10984190Y-15434476D01*
X11079429Y-15434476D02*
X11079429Y-15301143D01*
X11079429Y-15320190D02*
X11088952Y-15310667D01*
X11108000Y-15301143D01*
X11136571Y-15301143D01*
X11155619Y-15310667D01*
X11165143Y-15329714D01*
X11165143Y-15434476D01*
X11165143Y-15329714D02*
X11174667Y-15310667D01*
X11193714Y-15301143D01*
X11222286Y-15301143D01*
X11241333Y-15310667D01*
X11250857Y-15329714D01*
X11250857Y-15434476D01*
X11641333Y-15224952D02*
X11469905Y-15482095D01*
X11898476Y-15234476D02*
X11917524Y-15234476D01*
X11936571Y-15244000D01*
X11946095Y-15253524D01*
X11955619Y-15272571D01*
X11965143Y-15310667D01*
X11965143Y-15358286D01*
X11955619Y-15396381D01*
X11946095Y-15415428D01*
X11936571Y-15424952D01*
X11917524Y-15434476D01*
X11898476Y-15434476D01*
X11879428Y-15424952D01*
X11869905Y-15415428D01*
X11860381Y-15396381D01*
X11850857Y-15358286D01*
X11850857Y-15310667D01*
X11860381Y-15272571D01*
X11869905Y-15253524D01*
X11879428Y-15244000D01*
X11898476Y-15234476D01*
X12050857Y-15415428D02*
X12060381Y-15424952D01*
X12050857Y-15434476D01*
X12041333Y-15424952D01*
X12050857Y-15415428D01*
X12050857Y-15434476D01*
X12184190Y-15234476D02*
X12203238Y-15234476D01*
X12222286Y-15244000D01*
X12231809Y-15253524D01*
X12241333Y-15272571D01*
X12250857Y-15310667D01*
X12250857Y-15358286D01*
X12241333Y-15396381D01*
X12231809Y-15415428D01*
X12222286Y-15424952D01*
X12203238Y-15434476D01*
X12184190Y-15434476D01*
X12165143Y-15424952D01*
X12155619Y-15415428D01*
X12146095Y-15396381D01*
X12136571Y-15358286D01*
X12136571Y-15310667D01*
X12146095Y-15272571D01*
X12155619Y-15253524D01*
X12165143Y-15244000D01*
X12184190Y-15234476D01*
X12317524Y-15234476D02*
X12441333Y-15234476D01*
X12374667Y-15310667D01*
X12403238Y-15310667D01*
X12422286Y-15320190D01*
X12431809Y-15329714D01*
X12441333Y-15348762D01*
X12441333Y-15396381D01*
X12431809Y-15415428D01*
X12422286Y-15424952D01*
X12403238Y-15434476D01*
X12346095Y-15434476D01*
X12327048Y-15424952D01*
X12317524Y-15415428D01*
X12622286Y-15234476D02*
X12527048Y-15234476D01*
X12517524Y-15329714D01*
X12527048Y-15320190D01*
X12546095Y-15310667D01*
X12593714Y-15310667D01*
X12612762Y-15320190D01*
X12622286Y-15329714D01*
X12631809Y-15348762D01*
X12631809Y-15396381D01*
X12622286Y-15415428D01*
X12612762Y-15424952D01*
X12593714Y-15434476D01*
X12546095Y-15434476D01*
X12527048Y-15424952D01*
X12517524Y-15415428D01*
X12803238Y-15301143D02*
X12803238Y-15434476D01*
X12755619Y-15224952D02*
X12708000Y-15367809D01*
X12831809Y-15367809D01*
X12898476Y-15234476D02*
X12898476Y-15272571D01*
X12974667Y-15234476D02*
X12974667Y-15272571D01*
X13269905Y-15510667D02*
X13260381Y-15501143D01*
X13241333Y-15472571D01*
X13231809Y-15453524D01*
X13222286Y-15424952D01*
X13212762Y-15377333D01*
X13212762Y-15339238D01*
X13222286Y-15291619D01*
X13231809Y-15263048D01*
X13241333Y-15244000D01*
X13260381Y-15215428D01*
X13269905Y-15205905D01*
X13327048Y-15234476D02*
X13450857Y-15234476D01*
X13384190Y-15310667D01*
X13412762Y-15310667D01*
X13431809Y-15320190D01*
X13441333Y-15329714D01*
X13450857Y-15348762D01*
X13450857Y-15396381D01*
X13441333Y-15415428D01*
X13431809Y-15424952D01*
X13412762Y-15434476D01*
X13355619Y-15434476D01*
X13336571Y-15424952D01*
X13327048Y-15415428D01*
X13631809Y-15234476D02*
X13536571Y-15234476D01*
X13527048Y-15329714D01*
X13536571Y-15320190D01*
X13555619Y-15310667D01*
X13603238Y-15310667D01*
X13622286Y-15320190D01*
X13631809Y-15329714D01*
X13641333Y-15348762D01*
X13641333Y-15396381D01*
X13631809Y-15415428D01*
X13622286Y-15424952D01*
X13603238Y-15434476D01*
X13555619Y-15434476D01*
X13536571Y-15424952D01*
X13527048Y-15415428D01*
X13879428Y-15434476D02*
X13879428Y-15234476D01*
X13965143Y-15434476D02*
X13965143Y-15329714D01*
X13955619Y-15310667D01*
X13936571Y-15301143D01*
X13908000Y-15301143D01*
X13888952Y-15310667D01*
X13879428Y-15320190D01*
X14088952Y-15434476D02*
X14069905Y-15424952D01*
X14060381Y-15415428D01*
X14050857Y-15396381D01*
X14050857Y-15339238D01*
X14060381Y-15320190D01*
X14069905Y-15310667D01*
X14088952Y-15301143D01*
X14117524Y-15301143D01*
X14136571Y-15310667D01*
X14146095Y-15320190D01*
X14155619Y-15339238D01*
X14155619Y-15396381D01*
X14146095Y-15415428D01*
X14136571Y-15424952D01*
X14117524Y-15434476D01*
X14088952Y-15434476D01*
X14269905Y-15434476D02*
X14250857Y-15424952D01*
X14241333Y-15405905D01*
X14241333Y-15234476D01*
X14422286Y-15424952D02*
X14403238Y-15434476D01*
X14365143Y-15434476D01*
X14346095Y-15424952D01*
X14336571Y-15405905D01*
X14336571Y-15329714D01*
X14346095Y-15310667D01*
X14365143Y-15301143D01*
X14403238Y-15301143D01*
X14422286Y-15310667D01*
X14431809Y-15329714D01*
X14431809Y-15348762D01*
X14336571Y-15367809D01*
X14508000Y-15424952D02*
X14527048Y-15434476D01*
X14565143Y-15434476D01*
X14584190Y-15424952D01*
X14593714Y-15405905D01*
X14593714Y-15396381D01*
X14584190Y-15377333D01*
X14565143Y-15367809D01*
X14536571Y-15367809D01*
X14517524Y-15358286D01*
X14508000Y-15339238D01*
X14508000Y-15329714D01*
X14517524Y-15310667D01*
X14536571Y-15301143D01*
X14565143Y-15301143D01*
X14584190Y-15310667D01*
X14660381Y-15510667D02*
X14669905Y-15501143D01*
X14688952Y-15472571D01*
X14698476Y-15453524D01*
X14708000Y-15424952D01*
X14717524Y-15377333D01*
X14717524Y-15339238D01*
X14708000Y-15291619D01*
X14698476Y-15263048D01*
X14688952Y-15244000D01*
X14669905Y-15215428D01*
X14660381Y-15205905D01*
D14*
X9643000Y-15553000D02*
X9643000Y-15663000D01*
X9588000Y-15608000D02*
X9698000Y-15608000D01*
D11*
X10060381Y-15698476D02*
X9946095Y-15698476D01*
X10003238Y-15698476D02*
X10003238Y-15498476D01*
X9984190Y-15527048D01*
X9965143Y-15546095D01*
X9946095Y-15555619D01*
X10146095Y-15679428D02*
X10155619Y-15688952D01*
X10146095Y-15698476D01*
X10136571Y-15688952D01*
X10146095Y-15679428D01*
X10146095Y-15698476D01*
X10346095Y-15698476D02*
X10231810Y-15698476D01*
X10288952Y-15698476D02*
X10288952Y-15498476D01*
X10269905Y-15527048D01*
X10250857Y-15546095D01*
X10231810Y-15555619D01*
X10469905Y-15498476D02*
X10488952Y-15498476D01*
X10508000Y-15508000D01*
X10517524Y-15517524D01*
X10527048Y-15536571D01*
X10536571Y-15574667D01*
X10536571Y-15622286D01*
X10527048Y-15660381D01*
X10517524Y-15679428D01*
X10508000Y-15688952D01*
X10488952Y-15698476D01*
X10469905Y-15698476D01*
X10450857Y-15688952D01*
X10441333Y-15679428D01*
X10431810Y-15660381D01*
X10422286Y-15622286D01*
X10422286Y-15574667D01*
X10431810Y-15536571D01*
X10441333Y-15517524D01*
X10450857Y-15508000D01*
X10469905Y-15498476D01*
X10660381Y-15498476D02*
X10679429Y-15498476D01*
X10698476Y-15508000D01*
X10708000Y-15517524D01*
X10717524Y-15536571D01*
X10727048Y-15574667D01*
X10727048Y-15622286D01*
X10717524Y-15660381D01*
X10708000Y-15679428D01*
X10698476Y-15688952D01*
X10679429Y-15698476D01*
X10660381Y-15698476D01*
X10641333Y-15688952D01*
X10631810Y-15679428D01*
X10622286Y-15660381D01*
X10612762Y-15622286D01*
X10612762Y-15574667D01*
X10622286Y-15536571D01*
X10631810Y-15517524D01*
X10641333Y-15508000D01*
X10660381Y-15498476D01*
X10812762Y-15698476D02*
X10812762Y-15565143D01*
X10812762Y-15584190D02*
X10822286Y-15574667D01*
X10841333Y-15565143D01*
X10869905Y-15565143D01*
X10888952Y-15574667D01*
X10898476Y-15593714D01*
X10898476Y-15698476D01*
X10898476Y-15593714D02*
X10908000Y-15574667D01*
X10927048Y-15565143D01*
X10955619Y-15565143D01*
X10974667Y-15574667D01*
X10984190Y-15593714D01*
X10984190Y-15698476D01*
X11079429Y-15698476D02*
X11079429Y-15565143D01*
X11079429Y-15584190D02*
X11088952Y-15574667D01*
X11108000Y-15565143D01*
X11136571Y-15565143D01*
X11155619Y-15574667D01*
X11165143Y-15593714D01*
X11165143Y-15698476D01*
X11165143Y-15593714D02*
X11174667Y-15574667D01*
X11193714Y-15565143D01*
X11222286Y-15565143D01*
X11241333Y-15574667D01*
X11250857Y-15593714D01*
X11250857Y-15698476D01*
X11641333Y-15488952D02*
X11469905Y-15746095D01*
X11898476Y-15498476D02*
X11917524Y-15498476D01*
X11936571Y-15508000D01*
X11946095Y-15517524D01*
X11955619Y-15536571D01*
X11965143Y-15574667D01*
X11965143Y-15622286D01*
X11955619Y-15660381D01*
X11946095Y-15679428D01*
X11936571Y-15688952D01*
X11917524Y-15698476D01*
X11898476Y-15698476D01*
X11879428Y-15688952D01*
X11869905Y-15679428D01*
X11860381Y-15660381D01*
X11850857Y-15622286D01*
X11850857Y-15574667D01*
X11860381Y-15536571D01*
X11869905Y-15517524D01*
X11879428Y-15508000D01*
X11898476Y-15498476D01*
X12050857Y-15679428D02*
X12060381Y-15688952D01*
X12050857Y-15698476D01*
X12041333Y-15688952D01*
X12050857Y-15679428D01*
X12050857Y-15698476D01*
X12184190Y-15498476D02*
X12203238Y-15498476D01*
X12222286Y-15508000D01*
X12231809Y-15517524D01*
X12241333Y-15536571D01*
X12250857Y-15574667D01*
X12250857Y-15622286D01*
X12241333Y-15660381D01*
X12231809Y-15679428D01*
X12222286Y-15688952D01*
X12203238Y-15698476D01*
X12184190Y-15698476D01*
X12165143Y-15688952D01*
X12155619Y-15679428D01*
X12146095Y-15660381D01*
X12136571Y-15622286D01*
X12136571Y-15574667D01*
X12146095Y-15536571D01*
X12155619Y-15517524D01*
X12165143Y-15508000D01*
X12184190Y-15498476D01*
X12422286Y-15565143D02*
X12422286Y-15698476D01*
X12374667Y-15488952D02*
X12327048Y-15631809D01*
X12450857Y-15631809D01*
X12508000Y-15498476D02*
X12631809Y-15498476D01*
X12565143Y-15574667D01*
X12593714Y-15574667D01*
X12612762Y-15584190D01*
X12622286Y-15593714D01*
X12631809Y-15612762D01*
X12631809Y-15660381D01*
X12622286Y-15679428D01*
X12612762Y-15688952D01*
X12593714Y-15698476D01*
X12536571Y-15698476D01*
X12517524Y-15688952D01*
X12508000Y-15679428D01*
X12698476Y-15498476D02*
X12822286Y-15498476D01*
X12755619Y-15574667D01*
X12784190Y-15574667D01*
X12803238Y-15584190D01*
X12812762Y-15593714D01*
X12822286Y-15612762D01*
X12822286Y-15660381D01*
X12812762Y-15679428D01*
X12803238Y-15688952D01*
X12784190Y-15698476D01*
X12727048Y-15698476D01*
X12708000Y-15688952D01*
X12698476Y-15679428D01*
X12898476Y-15498476D02*
X12898476Y-15536571D01*
X12974667Y-15498476D02*
X12974667Y-15536571D01*
X13269905Y-15774667D02*
X13260381Y-15765143D01*
X13241333Y-15736571D01*
X13231809Y-15717524D01*
X13222286Y-15688952D01*
X13212762Y-15641333D01*
X13212762Y-15603238D01*
X13222286Y-15555619D01*
X13231809Y-15527048D01*
X13241333Y-15508000D01*
X13260381Y-15479428D01*
X13269905Y-15469905D01*
X13431809Y-15498476D02*
X13393714Y-15498476D01*
X13374667Y-15508000D01*
X13365143Y-15517524D01*
X13346095Y-15546095D01*
X13336571Y-15584190D01*
X13336571Y-15660381D01*
X13346095Y-15679428D01*
X13355619Y-15688952D01*
X13374667Y-15698476D01*
X13412762Y-15698476D01*
X13431809Y-15688952D01*
X13441333Y-15679428D01*
X13450857Y-15660381D01*
X13450857Y-15612762D01*
X13441333Y-15593714D01*
X13431809Y-15584190D01*
X13412762Y-15574667D01*
X13374667Y-15574667D01*
X13355619Y-15584190D01*
X13346095Y-15593714D01*
X13336571Y-15612762D01*
X13688952Y-15698476D02*
X13688952Y-15498476D01*
X13774667Y-15698476D02*
X13774667Y-15593714D01*
X13765143Y-15574667D01*
X13746095Y-15565143D01*
X13717524Y-15565143D01*
X13698476Y-15574667D01*
X13688952Y-15584190D01*
X13898476Y-15698476D02*
X13879428Y-15688952D01*
X13869905Y-15679428D01*
X13860381Y-15660381D01*
X13860381Y-15603238D01*
X13869905Y-15584190D01*
X13879428Y-15574667D01*
X13898476Y-15565143D01*
X13927048Y-15565143D01*
X13946095Y-15574667D01*
X13955619Y-15584190D01*
X13965143Y-15603238D01*
X13965143Y-15660381D01*
X13955619Y-15679428D01*
X13946095Y-15688952D01*
X13927048Y-15698476D01*
X13898476Y-15698476D01*
X14079428Y-15698476D02*
X14060381Y-15688952D01*
X14050857Y-15669905D01*
X14050857Y-15498476D01*
X14231809Y-15688952D02*
X14212762Y-15698476D01*
X14174667Y-15698476D01*
X14155619Y-15688952D01*
X14146095Y-15669905D01*
X14146095Y-15593714D01*
X14155619Y-15574667D01*
X14174667Y-15565143D01*
X14212762Y-15565143D01*
X14231809Y-15574667D01*
X14241333Y-15593714D01*
X14241333Y-15612762D01*
X14146095Y-15631809D01*
X14317524Y-15688952D02*
X14336571Y-15698476D01*
X14374667Y-15698476D01*
X14393714Y-15688952D01*
X14403238Y-15669905D01*
X14403238Y-15660381D01*
X14393714Y-15641333D01*
X14374667Y-15631809D01*
X14346095Y-15631809D01*
X14327048Y-15622286D01*
X14317524Y-15603238D01*
X14317524Y-15593714D01*
X14327048Y-15574667D01*
X14346095Y-15565143D01*
X14374667Y-15565143D01*
X14393714Y-15574667D01*
X14469905Y-15774667D02*
X14479428Y-15765143D01*
X14498476Y-15736571D01*
X14508000Y-15717524D01*
X14517524Y-15688952D01*
X14527048Y-15641333D01*
X14527048Y-15603238D01*
X14517524Y-15555619D01*
X14508000Y-15527048D01*
X14498476Y-15508000D01*
X14479428Y-15479428D01*
X14469905Y-15469905D01*
D15*
X9680427Y-15914427D02*
X9680427Y-15829573D01*
X9595573Y-15829573D01*
X9595573Y-15914427D01*
X9680427Y-15914427D01*
D11*
X10060381Y-15962476D02*
X9946095Y-15962476D01*
X10003238Y-15962476D02*
X10003238Y-15762476D01*
X9984190Y-15791048D01*
X9965143Y-15810095D01*
X9946095Y-15819619D01*
X10146095Y-15943428D02*
X10155619Y-15952952D01*
X10146095Y-15962476D01*
X10136571Y-15952952D01*
X10146095Y-15943428D01*
X10146095Y-15962476D01*
X10231810Y-15781524D02*
X10241333Y-15772000D01*
X10260381Y-15762476D01*
X10308000Y-15762476D01*
X10327048Y-15772000D01*
X10336571Y-15781524D01*
X10346095Y-15800571D01*
X10346095Y-15819619D01*
X10336571Y-15848190D01*
X10222286Y-15962476D01*
X10346095Y-15962476D01*
X10469905Y-15762476D02*
X10488952Y-15762476D01*
X10508000Y-15772000D01*
X10517524Y-15781524D01*
X10527048Y-15800571D01*
X10536571Y-15838667D01*
X10536571Y-15886286D01*
X10527048Y-15924381D01*
X10517524Y-15943428D01*
X10508000Y-15952952D01*
X10488952Y-15962476D01*
X10469905Y-15962476D01*
X10450857Y-15952952D01*
X10441333Y-15943428D01*
X10431810Y-15924381D01*
X10422286Y-15886286D01*
X10422286Y-15838667D01*
X10431810Y-15800571D01*
X10441333Y-15781524D01*
X10450857Y-15772000D01*
X10469905Y-15762476D01*
X10660381Y-15762476D02*
X10679429Y-15762476D01*
X10698476Y-15772000D01*
X10708000Y-15781524D01*
X10717524Y-15800571D01*
X10727048Y-15838667D01*
X10727048Y-15886286D01*
X10717524Y-15924381D01*
X10708000Y-15943428D01*
X10698476Y-15952952D01*
X10679429Y-15962476D01*
X10660381Y-15962476D01*
X10641333Y-15952952D01*
X10631810Y-15943428D01*
X10622286Y-15924381D01*
X10612762Y-15886286D01*
X10612762Y-15838667D01*
X10622286Y-15800571D01*
X10631810Y-15781524D01*
X10641333Y-15772000D01*
X10660381Y-15762476D01*
X10812762Y-15962476D02*
X10812762Y-15829143D01*
X10812762Y-15848190D02*
X10822286Y-15838667D01*
X10841333Y-15829143D01*
X10869905Y-15829143D01*
X10888952Y-15838667D01*
X10898476Y-15857714D01*
X10898476Y-15962476D01*
X10898476Y-15857714D02*
X10908000Y-15838667D01*
X10927048Y-15829143D01*
X10955619Y-15829143D01*
X10974667Y-15838667D01*
X10984190Y-15857714D01*
X10984190Y-15962476D01*
X11079429Y-15962476D02*
X11079429Y-15829143D01*
X11079429Y-15848190D02*
X11088952Y-15838667D01*
X11108000Y-15829143D01*
X11136571Y-15829143D01*
X11155619Y-15838667D01*
X11165143Y-15857714D01*
X11165143Y-15962476D01*
X11165143Y-15857714D02*
X11174667Y-15838667D01*
X11193714Y-15829143D01*
X11222286Y-15829143D01*
X11241333Y-15838667D01*
X11250857Y-15857714D01*
X11250857Y-15962476D01*
X11641333Y-15752952D02*
X11469905Y-16010095D01*
X11898476Y-15762476D02*
X11917524Y-15762476D01*
X11936571Y-15772000D01*
X11946095Y-15781524D01*
X11955619Y-15800571D01*
X11965143Y-15838667D01*
X11965143Y-15886286D01*
X11955619Y-15924381D01*
X11946095Y-15943428D01*
X11936571Y-15952952D01*
X11917524Y-15962476D01*
X11898476Y-15962476D01*
X11879428Y-15952952D01*
X11869905Y-15943428D01*
X11860381Y-15924381D01*
X11850857Y-15886286D01*
X11850857Y-15838667D01*
X11860381Y-15800571D01*
X11869905Y-15781524D01*
X11879428Y-15772000D01*
X11898476Y-15762476D01*
X12050857Y-15943428D02*
X12060381Y-15952952D01*
X12050857Y-15962476D01*
X12041333Y-15952952D01*
X12050857Y-15943428D01*
X12050857Y-15962476D01*
X12184190Y-15762476D02*
X12203238Y-15762476D01*
X12222286Y-15772000D01*
X12231809Y-15781524D01*
X12241333Y-15800571D01*
X12250857Y-15838667D01*
X12250857Y-15886286D01*
X12241333Y-15924381D01*
X12231809Y-15943428D01*
X12222286Y-15952952D01*
X12203238Y-15962476D01*
X12184190Y-15962476D01*
X12165143Y-15952952D01*
X12155619Y-15943428D01*
X12146095Y-15924381D01*
X12136571Y-15886286D01*
X12136571Y-15838667D01*
X12146095Y-15800571D01*
X12155619Y-15781524D01*
X12165143Y-15772000D01*
X12184190Y-15762476D01*
X12422286Y-15829143D02*
X12422286Y-15962476D01*
X12374667Y-15752952D02*
X12327048Y-15895809D01*
X12450857Y-15895809D01*
X12508000Y-15762476D02*
X12641333Y-15762476D01*
X12555619Y-15962476D01*
X12708000Y-15781524D02*
X12717524Y-15772000D01*
X12736571Y-15762476D01*
X12784190Y-15762476D01*
X12803238Y-15772000D01*
X12812762Y-15781524D01*
X12822286Y-15800571D01*
X12822286Y-15819619D01*
X12812762Y-15848190D01*
X12698476Y-15962476D01*
X12822286Y-15962476D01*
X12898476Y-15762476D02*
X12898476Y-15800571D01*
X12974667Y-15762476D02*
X12974667Y-15800571D01*
X13269905Y-16038667D02*
X13260381Y-16029143D01*
X13241333Y-16000571D01*
X13231809Y-15981524D01*
X13222286Y-15952952D01*
X13212762Y-15905333D01*
X13212762Y-15867238D01*
X13222286Y-15819619D01*
X13231809Y-15791048D01*
X13241333Y-15772000D01*
X13260381Y-15743428D01*
X13269905Y-15733905D01*
X13431809Y-15762476D02*
X13393714Y-15762476D01*
X13374667Y-15772000D01*
X13365143Y-15781524D01*
X13346095Y-15810095D01*
X13336571Y-15848190D01*
X13336571Y-15924381D01*
X13346095Y-15943428D01*
X13355619Y-15952952D01*
X13374667Y-15962476D01*
X13412762Y-15962476D01*
X13431809Y-15952952D01*
X13441333Y-15943428D01*
X13450857Y-15924381D01*
X13450857Y-15876762D01*
X13441333Y-15857714D01*
X13431809Y-15848190D01*
X13412762Y-15838667D01*
X13374667Y-15838667D01*
X13355619Y-15848190D01*
X13346095Y-15857714D01*
X13336571Y-15876762D01*
X13688952Y-15962476D02*
X13688952Y-15762476D01*
X13774667Y-15962476D02*
X13774667Y-15857714D01*
X13765143Y-15838667D01*
X13746095Y-15829143D01*
X13717524Y-15829143D01*
X13698476Y-15838667D01*
X13688952Y-15848190D01*
X13898476Y-15962476D02*
X13879428Y-15952952D01*
X13869905Y-15943428D01*
X13860381Y-15924381D01*
X13860381Y-15867238D01*
X13869905Y-15848190D01*
X13879428Y-15838667D01*
X13898476Y-15829143D01*
X13927048Y-15829143D01*
X13946095Y-15838667D01*
X13955619Y-15848190D01*
X13965143Y-15867238D01*
X13965143Y-15924381D01*
X13955619Y-15943428D01*
X13946095Y-15952952D01*
X13927048Y-15962476D01*
X13898476Y-15962476D01*
X14079428Y-15962476D02*
X14060381Y-15952952D01*
X14050857Y-15933905D01*
X14050857Y-15762476D01*
X14231809Y-15952952D02*
X14212762Y-15962476D01*
X14174667Y-15962476D01*
X14155619Y-15952952D01*
X14146095Y-15933905D01*
X14146095Y-15857714D01*
X14155619Y-15838667D01*
X14174667Y-15829143D01*
X14212762Y-15829143D01*
X14231809Y-15838667D01*
X14241333Y-15857714D01*
X14241333Y-15876762D01*
X14146095Y-15895809D01*
X14317524Y-15952952D02*
X14336571Y-15962476D01*
X14374667Y-15962476D01*
X14393714Y-15952952D01*
X14403238Y-15933905D01*
X14403238Y-15924381D01*
X14393714Y-15905333D01*
X14374667Y-15895809D01*
X14346095Y-15895809D01*
X14327048Y-15886286D01*
X14317524Y-15867238D01*
X14317524Y-15857714D01*
X14327048Y-15838667D01*
X14346095Y-15829143D01*
X14374667Y-15829143D01*
X14393714Y-15838667D01*
X14469905Y-16038667D02*
X14479428Y-16029143D01*
X14498476Y-16000571D01*
X14508000Y-15981524D01*
X14517524Y-15952952D01*
X14527048Y-15905333D01*
X14527048Y-15867238D01*
X14517524Y-15819619D01*
X14508000Y-15791048D01*
X14498476Y-15772000D01*
X14479428Y-15743428D01*
X14469905Y-15733905D01*
M02*
