%TF.GenerationSoftware,KiCad,Pcbnew,6.0.8*%
%TF.CreationDate,2022-10-09T16:34:15-07:00*%
%TF.ProjectId,dcpunks31,64637075-6e6b-4733-9331-2e6b69636164,rev?*%
%TF.SameCoordinates,Original*%
%TF.FileFunction,Legend,Bot*%
%TF.FilePolarity,Positive*%
%FSLAX46Y46*%
G04 Gerber Fmt 4.6, Leading zero omitted, Abs format (unit mm)*
G04 Created by KiCad (PCBNEW 6.0.8) date 2022-10-09 16:34:15*
%MOMM*%
%LPD*%
G01*
G04 APERTURE LIST*
G04 Aperture macros list*
%AMRoundRect*
0 Rectangle with rounded corners*
0 $1 Rounding radius*
0 $2 $3 $4 $5 $6 $7 $8 $9 X,Y pos of 4 corners*
0 Add a 4 corners polygon primitive as box body*
4,1,4,$2,$3,$4,$5,$6,$7,$8,$9,$2,$3,0*
0 Add four circle primitives for the rounded corners*
1,1,$1+$1,$2,$3*
1,1,$1+$1,$4,$5*
1,1,$1+$1,$6,$7*
1,1,$1+$1,$8,$9*
0 Add four rect primitives between the rounded corners*
20,1,$1+$1,$2,$3,$4,$5,0*
20,1,$1+$1,$4,$5,$6,$7,0*
20,1,$1+$1,$6,$7,$8,$9,0*
20,1,$1+$1,$8,$9,$2,$3,0*%
G04 Aperture macros list end*
%ADD10C,0.150000*%
%ADD11C,0.100000*%
%ADD12C,0.120000*%
%ADD13C,0.127000*%
%ADD14C,0.200000*%
%ADD15R,1.800000X1.800000*%
%ADD16C,1.800000*%
%ADD17C,2.290000*%
%ADD18C,1.524000*%
%ADD19RoundRect,0.250000X-1.050000X-0.550000X1.050000X-0.550000X1.050000X0.550000X-1.050000X0.550000X0*%
%ADD20RoundRect,0.237500X-0.237500X0.250000X-0.237500X-0.250000X0.237500X-0.250000X0.237500X0.250000X0*%
%ADD21RoundRect,0.237500X0.250000X0.237500X-0.250000X0.237500X-0.250000X-0.237500X0.250000X-0.237500X0*%
%ADD22R,2.000000X2.000000*%
%ADD23C,2.000000*%
%ADD24C,1.700000*%
%ADD25R,0.300000X0.800000*%
%ADD26RoundRect,0.150000X0.825000X0.150000X-0.825000X0.150000X-0.825000X-0.150000X0.825000X-0.150000X0*%
%ADD27R,1.200000X2.200000*%
%ADD28R,5.800000X6.400000*%
%ADD29R,0.800000X0.300000*%
%ADD30RoundRect,0.150000X-0.825000X-0.150000X0.825000X-0.150000X0.825000X0.150000X-0.825000X0.150000X0*%
%ADD31RoundRect,0.250001X-0.246691X0.737342X-0.777248X-0.020372X0.246691X-0.737342X0.777248X0.020372X0*%
G04 APERTURE END LIST*
D10*
X162584166Y-77257142D02*
X162631785Y-77304761D01*
X162774642Y-77352380D01*
X162869880Y-77352380D01*
X163012738Y-77304761D01*
X163107976Y-77209523D01*
X163155595Y-77114285D01*
X163203214Y-76923809D01*
X163203214Y-76780952D01*
X163155595Y-76590476D01*
X163107976Y-76495238D01*
X163012738Y-76400000D01*
X162869880Y-76352380D01*
X162774642Y-76352380D01*
X162631785Y-76400000D01*
X162584166Y-76447619D01*
X161631785Y-77352380D02*
X162203214Y-77352380D01*
X161917500Y-77352380D02*
X161917500Y-76352380D01*
X162012738Y-76495238D01*
X162107976Y-76590476D01*
X162203214Y-76638095D01*
X142114166Y-79517142D02*
X142161785Y-79564761D01*
X142304642Y-79612380D01*
X142399880Y-79612380D01*
X142542738Y-79564761D01*
X142637976Y-79469523D01*
X142685595Y-79374285D01*
X142733214Y-79183809D01*
X142733214Y-79040952D01*
X142685595Y-78850476D01*
X142637976Y-78755238D01*
X142542738Y-78660000D01*
X142399880Y-78612380D01*
X142304642Y-78612380D01*
X142161785Y-78660000D01*
X142114166Y-78707619D01*
X141733214Y-78707619D02*
X141685595Y-78660000D01*
X141590357Y-78612380D01*
X141352261Y-78612380D01*
X141257023Y-78660000D01*
X141209404Y-78707619D01*
X141161785Y-78802857D01*
X141161785Y-78898095D01*
X141209404Y-79040952D01*
X141780833Y-79612380D01*
X141161785Y-79612380D01*
X136912380Y-59573333D02*
X136436190Y-59240000D01*
X136912380Y-59001904D02*
X135912380Y-59001904D01*
X135912380Y-59382857D01*
X135960000Y-59478095D01*
X136007619Y-59525714D01*
X136102857Y-59573333D01*
X136245714Y-59573333D01*
X136340952Y-59525714D01*
X136388571Y-59478095D01*
X136436190Y-59382857D01*
X136436190Y-59001904D01*
X136007619Y-59954285D02*
X135960000Y-60001904D01*
X135912380Y-60097142D01*
X135912380Y-60335238D01*
X135960000Y-60430476D01*
X136007619Y-60478095D01*
X136102857Y-60525714D01*
X136198095Y-60525714D01*
X136340952Y-60478095D01*
X136912380Y-59906666D01*
X136912380Y-60525714D01*
X152986666Y-67582380D02*
X153320000Y-67106190D01*
X153558095Y-67582380D02*
X153558095Y-66582380D01*
X153177142Y-66582380D01*
X153081904Y-66630000D01*
X153034285Y-66677619D01*
X152986666Y-66772857D01*
X152986666Y-66915714D01*
X153034285Y-67010952D01*
X153081904Y-67058571D01*
X153177142Y-67106190D01*
X153558095Y-67106190D01*
X152034285Y-67582380D02*
X152605714Y-67582380D01*
X152320000Y-67582380D02*
X152320000Y-66582380D01*
X152415238Y-66725238D01*
X152510476Y-66820476D01*
X152605714Y-66868095D01*
X133630238Y-61997380D02*
X133963571Y-61521190D01*
X134201666Y-61997380D02*
X134201666Y-60997380D01*
X133820714Y-60997380D01*
X133725476Y-61045000D01*
X133677857Y-61092619D01*
X133630238Y-61187857D01*
X133630238Y-61330714D01*
X133677857Y-61425952D01*
X133725476Y-61473571D01*
X133820714Y-61521190D01*
X134201666Y-61521190D01*
X133344523Y-60997380D02*
X133011190Y-61997380D01*
X132677857Y-60997380D01*
X132392142Y-61092619D02*
X132344523Y-61045000D01*
X132249285Y-60997380D01*
X132011190Y-60997380D01*
X131915952Y-61045000D01*
X131868333Y-61092619D01*
X131820714Y-61187857D01*
X131820714Y-61283095D01*
X131868333Y-61425952D01*
X132439761Y-61997380D01*
X131820714Y-61997380D01*
X173515526Y-119344517D02*
X173472593Y-119488852D01*
X173336028Y-119683888D01*
X173242394Y-119734589D01*
X173176074Y-119746283D01*
X173070746Y-119730664D01*
X172992731Y-119676038D01*
X172942030Y-119582404D01*
X172930336Y-119516084D01*
X172945955Y-119410756D01*
X173016201Y-119227414D01*
X173031820Y-119122086D01*
X173020126Y-119055766D01*
X172969424Y-118962132D01*
X172891410Y-118907506D01*
X172786082Y-118891887D01*
X172719762Y-118903581D01*
X172626128Y-118954282D01*
X172489562Y-119149319D01*
X172446630Y-119293653D01*
X172216431Y-119539391D02*
X172899017Y-120308004D01*
X172204656Y-120054335D01*
X172680512Y-120620062D01*
X171724794Y-120241521D01*
X172024996Y-121556235D02*
X172352754Y-121088148D01*
X172188875Y-121322192D02*
X171369723Y-120748615D01*
X171541371Y-120752540D01*
X171674011Y-120729152D01*
X171767645Y-120678451D01*
D11*
X178566330Y-123079959D02*
X178523397Y-123224294D01*
X178386832Y-123419330D01*
X178293198Y-123470031D01*
X178226878Y-123481725D01*
X178121550Y-123466106D01*
X178043535Y-123411480D01*
X177992834Y-123317846D01*
X177981140Y-123251526D01*
X177996759Y-123146198D01*
X178067005Y-122962856D01*
X178082624Y-122857528D01*
X178070930Y-122791208D01*
X178020228Y-122697574D01*
X177942214Y-122642948D01*
X177836886Y-122627329D01*
X177770566Y-122639023D01*
X177676932Y-122689724D01*
X177540366Y-122884761D01*
X177497434Y-123029095D01*
X177267235Y-123274833D02*
X177949821Y-124043446D01*
X177255460Y-123789777D01*
X177731316Y-124355504D01*
X176775598Y-123976963D01*
X177075800Y-125291677D02*
X177403558Y-124823590D01*
X177239679Y-125057634D02*
X176420527Y-124484057D01*
X176592175Y-124487982D01*
X176724815Y-124464594D01*
X176818449Y-124413893D01*
D10*
X116102380Y-92469523D02*
X115626190Y-92136190D01*
X116102380Y-91898095D02*
X115102380Y-91898095D01*
X115102380Y-92279047D01*
X115150000Y-92374285D01*
X115197619Y-92421904D01*
X115292857Y-92469523D01*
X115435714Y-92469523D01*
X115530952Y-92421904D01*
X115578571Y-92374285D01*
X115626190Y-92279047D01*
X115626190Y-91898095D01*
X116102380Y-92898095D02*
X115102380Y-92898095D01*
X116102380Y-93469523D01*
X115102380Y-93469523D01*
X115197619Y-93898095D02*
X115150000Y-93945714D01*
X115102380Y-94040952D01*
X115102380Y-94279047D01*
X115150000Y-94374285D01*
X115197619Y-94421904D01*
X115292857Y-94469523D01*
X115388095Y-94469523D01*
X115530952Y-94421904D01*
X116102380Y-93850476D01*
X116102380Y-94469523D01*
X145461904Y-56762380D02*
X145461904Y-57571904D01*
X145414285Y-57667142D01*
X145366666Y-57714761D01*
X145271428Y-57762380D01*
X145080952Y-57762380D01*
X144985714Y-57714761D01*
X144938095Y-57667142D01*
X144890476Y-57571904D01*
X144890476Y-56762380D01*
X144461904Y-56857619D02*
X144414285Y-56810000D01*
X144319047Y-56762380D01*
X144080952Y-56762380D01*
X143985714Y-56810000D01*
X143938095Y-56857619D01*
X143890476Y-56952857D01*
X143890476Y-57048095D01*
X143938095Y-57190952D01*
X144509523Y-57762380D01*
X143890476Y-57762380D01*
X167060476Y-86432380D02*
X167393809Y-85956190D01*
X167631904Y-86432380D02*
X167631904Y-85432380D01*
X167250952Y-85432380D01*
X167155714Y-85480000D01*
X167108095Y-85527619D01*
X167060476Y-85622857D01*
X167060476Y-85765714D01*
X167108095Y-85860952D01*
X167155714Y-85908571D01*
X167250952Y-85956190D01*
X167631904Y-85956190D01*
X166631904Y-86432380D02*
X166631904Y-85432380D01*
X166060476Y-86432380D01*
X166060476Y-85432380D01*
X165060476Y-86432380D02*
X165631904Y-86432380D01*
X165346190Y-86432380D02*
X165346190Y-85432380D01*
X165441428Y-85575238D01*
X165536666Y-85670476D01*
X165631904Y-85718095D01*
X177111904Y-85922380D02*
X177111904Y-86731904D01*
X177064285Y-86827142D01*
X177016666Y-86874761D01*
X176921428Y-86922380D01*
X176730952Y-86922380D01*
X176635714Y-86874761D01*
X176588095Y-86827142D01*
X176540476Y-86731904D01*
X176540476Y-85922380D01*
X175540476Y-86922380D02*
X176111904Y-86922380D01*
X175826190Y-86922380D02*
X175826190Y-85922380D01*
X175921428Y-86065238D01*
X176016666Y-86160476D01*
X176111904Y-86208095D01*
X158167380Y-62219761D02*
X157691190Y-61886428D01*
X158167380Y-61648333D02*
X157167380Y-61648333D01*
X157167380Y-62029285D01*
X157215000Y-62124523D01*
X157262619Y-62172142D01*
X157357857Y-62219761D01*
X157500714Y-62219761D01*
X157595952Y-62172142D01*
X157643571Y-62124523D01*
X157691190Y-62029285D01*
X157691190Y-61648333D01*
X157167380Y-62505476D02*
X158167380Y-62838809D01*
X157167380Y-63172142D01*
X158167380Y-64029285D02*
X158167380Y-63457857D01*
X158167380Y-63743571D02*
X157167380Y-63743571D01*
X157310238Y-63648333D01*
X157405476Y-63553095D01*
X157453095Y-63457857D01*
X169902681Y-119495979D02*
X170093873Y-119222928D01*
X170522953Y-119523373D02*
X169703801Y-118949797D01*
X169430669Y-119339869D01*
X169730871Y-120654583D02*
X170058629Y-120186496D01*
X169894750Y-120420540D02*
X169075598Y-119846963D01*
X169247246Y-119850888D01*
X169379887Y-119827500D01*
X169473520Y-119776799D01*
X119251904Y-83872380D02*
X119251904Y-84681904D01*
X119204285Y-84777142D01*
X119156666Y-84824761D01*
X119061428Y-84872380D01*
X118870952Y-84872380D01*
X118775714Y-84824761D01*
X118728095Y-84777142D01*
X118680476Y-84681904D01*
X118680476Y-83872380D01*
X118299523Y-83872380D02*
X117680476Y-83872380D01*
X118013809Y-84253333D01*
X117870952Y-84253333D01*
X117775714Y-84300952D01*
X117728095Y-84348571D01*
X117680476Y-84443809D01*
X117680476Y-84681904D01*
X117728095Y-84777142D01*
X117775714Y-84824761D01*
X117870952Y-84872380D01*
X118156666Y-84872380D01*
X118251904Y-84824761D01*
X118299523Y-84777142D01*
D12*
X164677500Y-71440000D02*
X164677500Y-72640000D01*
X160157500Y-74895563D02*
X160157500Y-74760000D01*
X159417500Y-75260000D02*
X159917500Y-75260000D01*
X161221937Y-75960000D02*
X164677500Y-75960000D01*
X160157500Y-74895563D02*
X161221937Y-75960000D01*
X161221937Y-71440000D02*
X164677500Y-71440000D01*
X160157500Y-72504437D02*
X161221937Y-71440000D01*
X160157500Y-72504437D02*
X160157500Y-72640000D01*
X159667500Y-75510000D02*
X159667500Y-75010000D01*
X164677500Y-75960000D02*
X164677500Y-74760000D01*
X139197500Y-77770000D02*
X139197500Y-77270000D01*
X144207500Y-78220000D02*
X144207500Y-77020000D01*
X139687500Y-74764437D02*
X140751937Y-73700000D01*
X139687500Y-77155563D02*
X139687500Y-77020000D01*
X139687500Y-77155563D02*
X140751937Y-78220000D01*
X140751937Y-78220000D02*
X144207500Y-78220000D01*
X140751937Y-73700000D02*
X144207500Y-73700000D01*
X144207500Y-73700000D02*
X144207500Y-74900000D01*
X138947500Y-77520000D02*
X139447500Y-77520000D01*
X139687500Y-74764437D02*
X139687500Y-74900000D01*
X138412500Y-59485276D02*
X138412500Y-59994724D01*
X137367500Y-59485276D02*
X137367500Y-59994724D01*
X153074724Y-68037500D02*
X152565276Y-68037500D01*
X153074724Y-69082500D02*
X152565276Y-69082500D01*
D13*
X136560000Y-64170000D02*
X136560000Y-68040000D01*
X128910000Y-64900000D02*
X128910000Y-67440000D01*
X135020000Y-69575000D02*
X131310000Y-69575000D01*
X128460000Y-67440000D02*
X128460000Y-69575000D01*
X128460000Y-64900000D02*
X128910000Y-64900000D01*
X128460000Y-62765000D02*
X128460000Y-64900000D01*
X128910000Y-67440000D02*
X128460000Y-67440000D01*
X130960000Y-62765000D02*
X135160000Y-62765000D01*
X128460000Y-69575000D02*
X128910000Y-69575000D01*
X136560000Y-68040000D02*
X135020000Y-69575000D01*
X135160000Y-62765000D02*
X136560000Y-64170000D01*
X128910000Y-62765000D02*
X128460000Y-62765000D01*
X128910000Y-67450000D02*
X128910000Y-67440000D01*
D14*
X127810000Y-68670000D02*
G75*
G03*
X127810000Y-68670000I-100000J0D01*
G01*
D12*
X176524389Y-114167390D02*
X175778739Y-115232288D01*
X175954678Y-116637295D02*
X170276272Y-124746900D01*
X175764590Y-128589862D02*
X181442997Y-120480257D01*
X169714804Y-126856344D02*
X173974395Y-129838942D01*
X177589286Y-114913039D02*
X176524389Y-114167390D01*
X182004465Y-118370813D02*
X177744874Y-115388216D01*
X120770000Y-93660000D02*
X120770000Y-92660000D01*
X116530000Y-93660000D02*
X116530000Y-92660000D01*
X144700000Y-67025000D02*
X142750000Y-67025000D01*
X144700000Y-58155000D02*
X142750000Y-58155000D01*
X144700000Y-67025000D02*
X146650000Y-67025000D01*
X144700000Y-58155000D02*
X148150000Y-58155000D01*
X170835000Y-108845000D02*
X170835000Y-109945000D01*
X177195000Y-108845000D02*
X177195000Y-111675000D01*
X177465000Y-107345000D02*
X177465000Y-108845000D01*
X170565000Y-108845000D02*
X170835000Y-108845000D01*
X170565000Y-107345000D02*
X170565000Y-108845000D01*
X177465000Y-108845000D02*
X177195000Y-108845000D01*
X165870000Y-86860000D02*
X166870000Y-86860000D01*
X165870000Y-91100000D02*
X166870000Y-91100000D01*
X176350000Y-76755000D02*
X174400000Y-76755000D01*
X176350000Y-85625000D02*
X178300000Y-85625000D01*
X176350000Y-76755000D02*
X178300000Y-76755000D01*
X176350000Y-85625000D02*
X172900000Y-85625000D01*
D13*
X149685000Y-64800000D02*
X149685000Y-61090000D01*
X156495000Y-64940000D02*
X155090000Y-66340000D01*
X154360000Y-58240000D02*
X154360000Y-58690000D01*
X151810000Y-58690000D02*
X151820000Y-58690000D01*
X149685000Y-58240000D02*
X149685000Y-58690000D01*
X151220000Y-66340000D02*
X149685000Y-64800000D01*
X151820000Y-58690000D02*
X151820000Y-58240000D01*
X156495000Y-60740000D02*
X156495000Y-64940000D01*
X155090000Y-66340000D02*
X151220000Y-66340000D01*
X156495000Y-58690000D02*
X156495000Y-58240000D01*
X154360000Y-58690000D02*
X151820000Y-58690000D01*
X151820000Y-58240000D02*
X149685000Y-58240000D01*
X156495000Y-58240000D02*
X154360000Y-58240000D01*
D14*
X150690000Y-57490000D02*
G75*
G03*
X150690000Y-57490000I-100000J0D01*
G01*
D12*
X171439901Y-115774863D02*
X170749242Y-116761227D01*
X172930758Y-116818773D02*
X172240099Y-117805137D01*
X118490000Y-74705000D02*
X120440000Y-74705000D01*
X118490000Y-83575000D02*
X115040000Y-83575000D01*
X118490000Y-83575000D02*
X120440000Y-83575000D01*
X118490000Y-74705000D02*
X116540000Y-74705000D01*
%LPC*%
D15*
X113855000Y-102200000D03*
D16*
X116395000Y-102200000D03*
D15*
X119645000Y-119040000D03*
D16*
X122185000Y-119040000D03*
D15*
X138320000Y-100420000D03*
D16*
X140860000Y-100420000D03*
D15*
X140795000Y-86350000D03*
D16*
X143335000Y-86350000D03*
D17*
X152845000Y-109410000D03*
X139365000Y-131760000D03*
X125875000Y-109410000D03*
D18*
X164445000Y-126850000D03*
X164445000Y-114150000D03*
D15*
X153555000Y-119700000D03*
D16*
X156095000Y-119700000D03*
D15*
X112105000Y-130530000D03*
D16*
X114645000Y-130530000D03*
D15*
X99635000Y-101430000D03*
D16*
X102175000Y-101430000D03*
D15*
X127270000Y-103950000D03*
D16*
X129810000Y-103950000D03*
D15*
X164495000Y-107450000D03*
D16*
X167035000Y-107450000D03*
D15*
X159355000Y-62290000D03*
D16*
X161895000Y-62290000D03*
D15*
X148155000Y-105560000D03*
D16*
X150695000Y-105560000D03*
D15*
X130955000Y-74930000D03*
D16*
X133495000Y-74930000D03*
D15*
X150385000Y-74580000D03*
D16*
X152925000Y-74580000D03*
D15*
X159860000Y-133590000D03*
D16*
X162400000Y-133590000D03*
D15*
X180895000Y-110070000D03*
D16*
X183435000Y-110070000D03*
D15*
X123005000Y-62290000D03*
D16*
X125545000Y-62290000D03*
D19*
X160617500Y-73700000D03*
X164217500Y-73700000D03*
X140147500Y-75960000D03*
X143747500Y-75960000D03*
D20*
X137890000Y-58827500D03*
X137890000Y-60652500D03*
D21*
X153732500Y-68560000D03*
X151907500Y-68560000D03*
D22*
X130010000Y-68670000D03*
D23*
X135010000Y-66170000D03*
X130010000Y-63670000D03*
X169960720Y-125807762D03*
X181758549Y-119419396D03*
X174875632Y-129249220D03*
X176843637Y-115977937D03*
D24*
X177130000Y-118620000D03*
X174835694Y-121896608D03*
X172541389Y-125173216D03*
D25*
X116900000Y-92260000D03*
X117400000Y-92260000D03*
X117900000Y-92260000D03*
X118400000Y-92260000D03*
X118900000Y-92260000D03*
X119400000Y-92260000D03*
X119900000Y-92260000D03*
X120400000Y-92260000D03*
X120400000Y-94060000D03*
X119900000Y-94060000D03*
X119400000Y-94060000D03*
X118900000Y-94060000D03*
X118400000Y-94060000D03*
X117900000Y-94060000D03*
X117400000Y-94060000D03*
X116900000Y-94060000D03*
D26*
X147175000Y-58780000D03*
X147175000Y-60050000D03*
X147175000Y-61320000D03*
X147175000Y-62590000D03*
X147175000Y-63860000D03*
X147175000Y-65130000D03*
X147175000Y-66400000D03*
X142225000Y-66400000D03*
X142225000Y-65130000D03*
X142225000Y-63860000D03*
X142225000Y-62590000D03*
X142225000Y-61320000D03*
X142225000Y-60050000D03*
X142225000Y-58780000D03*
D27*
X176295000Y-110575000D03*
D28*
X174015000Y-104275000D03*
D27*
X171735000Y-110575000D03*
D29*
X167270000Y-87230000D03*
X167270000Y-87730000D03*
X167270000Y-88230000D03*
X167270000Y-88730000D03*
X167270000Y-89230000D03*
X167270000Y-89730000D03*
X167270000Y-90230000D03*
X167270000Y-90730000D03*
X165470000Y-90730000D03*
X165470000Y-90230000D03*
X165470000Y-89730000D03*
X165470000Y-89230000D03*
X165470000Y-88730000D03*
X165470000Y-88230000D03*
X165470000Y-87730000D03*
X165470000Y-87230000D03*
D30*
X173875000Y-85000000D03*
X173875000Y-83730000D03*
X173875000Y-82460000D03*
X173875000Y-81190000D03*
X173875000Y-79920000D03*
X173875000Y-78650000D03*
X173875000Y-77380000D03*
X178825000Y-77380000D03*
X178825000Y-78650000D03*
X178825000Y-79920000D03*
X178825000Y-81190000D03*
X178825000Y-82460000D03*
X178825000Y-83730000D03*
X178825000Y-85000000D03*
D22*
X150590000Y-59790000D03*
D23*
X153090000Y-64790000D03*
X155590000Y-59790000D03*
D31*
X172693195Y-115571511D03*
X170986805Y-118008489D03*
D30*
X116015000Y-82950000D03*
X116015000Y-81680000D03*
X116015000Y-80410000D03*
X116015000Y-79140000D03*
X116015000Y-77870000D03*
X116015000Y-76600000D03*
X116015000Y-75330000D03*
X120965000Y-75330000D03*
X120965000Y-76600000D03*
X120965000Y-77870000D03*
X120965000Y-79140000D03*
X120965000Y-80410000D03*
X120965000Y-81680000D03*
X120965000Y-82950000D03*
M02*
