M48
; DRILL file {KiCad 6.0.9} date Tue 22 Nov 2022 10:01:47 PM PST
; FORMAT={-:-/ absolute / metric / decimal}
; #@! TF.CreationDate,2022-11-22T22:01:47-08:00
; #@! TF.GenerationSoftware,Kicad,Pcbnew,6.0.9
; #@! TF.FileFunction,Plated,1,2,PTH
FMAT,2
METRIC
; #@! TA.AperFunction,Plated,PTH,ViaDrill
T1C0.400
; #@! TA.AperFunction,Plated,PTH,ComponentDrill
T2C0.900
; #@! TA.AperFunction,Plated,PTH,ComponentDrill
T3C1.100
; #@! TA.AperFunction,Plated,PTH,ComponentDrill
T4C1.200
%
G90
G05
T1
X107.02Y-105.18
X110.17Y-90.47
X111.255Y-120.19
X114.36Y-82.95
X114.47Y-126.18
X115.063Y-96.833
X115.2Y-95.54
X115.32Y-119.78
X117.47Y-97.57
X117.536Y-96.466
X118.066Y-98.605
X118.58Y-97.55
X122.2Y-111.56
X122.67Y-71.54
X122.7Y-81.65
X122.76Y-82.91
X123.49Y-99.15
X124.229Y-81.73
X126.05Y-78.82
X126.68Y-74.97
X129.89Y-72.4
X130.13Y-86.11
X130.77Y-92.06
X131.65Y-98.7
X132.22Y-65.37
X133.71Y-115.95
X134.69Y-125.16
X136.97Y-70.11
X137.28Y-85.6
X137.6Y-93.39
X139.38Y-65.78
X142.56Y-80.35
X143.94Y-62.07
X144.05Y-66.06
X145.21Y-65.12
X145.49Y-61.65
X146.08Y-93.13
X150.26Y-84.08
X151.56Y-66.98
X156.59Y-101.62
X157.54Y-87.01
X158.78Y-71.51
X158.96Y-80.56
X160.048Y-92.628
X160.58Y-125.21
X160.783Y-91.893
X162.29Y-98.7
X162.437Y-84.98
X162.437Y-87.515
X162.75Y-66.25
X163.137Y-91.617
X163.14Y-86.13
X163.555Y-87.594
X169.216Y-87.995
X169.5Y-95.79
X170.01Y-83.34
X170.038Y-87.409
X170.056Y-84.356
X170.084Y-82.228
X170.17Y-88.495
X170.42Y-73.57
X171.88Y-84.86
X172.2Y-86.92
X178.32Y-111.26
X181.11Y-81.74
X182.1Y-78.63
X182.39Y-98.35
T2
X99.635Y-101.43
X102.175Y-101.43
X112.105Y-130.53
X113.855Y-102.2
X114.645Y-130.53
X116.395Y-102.2
X119.645Y-119.04
X122.185Y-119.04
X123.005Y-62.29
X125.545Y-62.29
X127.27Y-103.95
X129.81Y-103.95
X130.955Y-74.93
X133.495Y-74.93
X138.32Y-100.42
X140.795Y-86.35
X140.86Y-100.42
X143.335Y-86.35
X148.155Y-105.56
X150.385Y-74.58
X150.695Y-105.56
X152.925Y-74.58
X153.555Y-119.7
X156.095Y-119.7
X159.355Y-62.29
X159.86Y-133.59
X161.895Y-62.29
X162.4Y-133.59
X164.495Y-107.45
X167.035Y-107.45
X172.541Y-125.173
X174.836Y-121.897
X177.13Y-118.62
X180.895Y-110.07
X183.435Y-110.07
T3
X130.01Y-63.67
X130.01Y-68.67
X135.01Y-66.17
X150.59Y-59.79
X153.09Y-64.79
X155.59Y-59.79
T4
X164.445Y-114.15
X164.445Y-126.85
X169.961Y-125.808
X174.876Y-129.249
X176.844Y-115.978
X181.759Y-119.419
T0
M30
