%TF.GenerationSoftware,KiCad,Pcbnew,6.0.9*%
%TF.CreationDate,2022-11-22T22:01:47-08:00*%
%TF.ProjectId,dcpunks31,64637075-6e6b-4733-9331-2e6b69636164,rev?*%
%TF.SameCoordinates,Original*%
%TF.FileFunction,Drillmap*%
%TF.FilePolarity,Positive*%
%FSLAX45Y45*%
G04 Gerber Fmt 4.5, Leading zero omitted, Abs format (unit mm)*
G04 Created by KiCad (PCBNEW 6.0.9) date 2022-11-22 22:01:47*
%MOMM*%
%LPD*%
G01*
G04 APERTURE LIST*
%ADD10C,0.100000*%
%ADD11C,0.200000*%
%ADD12C,0.229000*%
G04 APERTURE END LIST*
D10*
X14655000Y-4846000D02*
X14592000Y-4798000D01*
X10963000Y-6800000D02*
X10673000Y-7119000D01*
X13885000Y-14411000D02*
X14562000Y-14351000D01*
X14592000Y-4798000D02*
X14295000Y-4575000D01*
X9812000Y-11296000D02*
X9965000Y-11869000D01*
X15287000Y-5419000D02*
X15012000Y-5221000D01*
X15762000Y-14012000D02*
X16470000Y-13752000D01*
X16028000Y-5724000D02*
X15420000Y-5569000D01*
X12651000Y-5621000D02*
X12223000Y-5821000D01*
X9965000Y-11869000D02*
X10162000Y-12451000D01*
X11375000Y-6407000D02*
X10963000Y-6800000D01*
X13018000Y-5501000D02*
X12651000Y-5621000D01*
X14562000Y-14351000D02*
X15075000Y-14228000D01*
X18836000Y-9836000D02*
X18862000Y-9584000D01*
X14042000Y-4519000D02*
X13707000Y-4616000D01*
X17600000Y-13142000D02*
X17784000Y-12917000D01*
X10218000Y-7792000D02*
X10126000Y-8092000D01*
X14834000Y-5085000D02*
X14655000Y-4846000D01*
X10343000Y-7609000D02*
X10218000Y-7792000D01*
X13415000Y-5196000D02*
X13484000Y-5365000D01*
X18605000Y-8427000D02*
X18401000Y-7860000D01*
X10162000Y-12451000D02*
X10480000Y-12919000D01*
X15012000Y-5221000D02*
X14834000Y-5085000D01*
X9703000Y-10216000D02*
X9718000Y-10752000D01*
X10126000Y-8092000D02*
X9892000Y-8859000D01*
X12498000Y-14299000D02*
X13170000Y-14413000D01*
X9733000Y-9546000D02*
X9703000Y-10216000D01*
X14295000Y-4575000D02*
X14042000Y-4519000D01*
X18401000Y-7860000D02*
X18173000Y-7420000D01*
X16576000Y-5906000D02*
X16028000Y-5724000D01*
X15075000Y-14228000D02*
X15762000Y-14012000D01*
X17890000Y-12775000D02*
X18184000Y-12345000D01*
X13432000Y-4938000D02*
X13415000Y-5196000D01*
X18665000Y-11184000D02*
X18836000Y-9836000D01*
X13576000Y-4762000D02*
X13432000Y-4938000D01*
X9892000Y-8859000D02*
X9733000Y-9546000D01*
X17578000Y-6518000D02*
X17196000Y-6291000D01*
X18596000Y-11540000D02*
X18665000Y-11184000D01*
X11785000Y-6082000D02*
X11375000Y-6407000D01*
X13707000Y-4616000D02*
X13576000Y-4762000D01*
X18862000Y-9584000D02*
X18766000Y-9157000D01*
X18184000Y-12345000D02*
X18319000Y-12165000D01*
X9718000Y-10752000D02*
X9812000Y-11296000D01*
X13544000Y-5432000D02*
X13479000Y-5443000D01*
X11304000Y-13726000D02*
X11944000Y-14104000D01*
X16932000Y-13518000D02*
X17600000Y-13142000D01*
X15420000Y-5569000D02*
X15287000Y-5419000D01*
X13170000Y-14413000D02*
X13529000Y-14435000D01*
X17784000Y-12917000D02*
X17890000Y-12775000D01*
X11944000Y-14104000D02*
X12498000Y-14299000D01*
X18173000Y-7420000D02*
X17578000Y-6518000D01*
X18319000Y-12165000D02*
X18596000Y-11540000D01*
X10480000Y-12919000D02*
X10864000Y-13395000D01*
X17196000Y-6291000D02*
X16576000Y-5906000D01*
X10673000Y-7119000D02*
X10343000Y-7609000D01*
X18766000Y-9157000D02*
X18605000Y-8427000D01*
X10864000Y-13395000D02*
X11304000Y-13726000D01*
X13479000Y-5443000D02*
X13018000Y-5501000D01*
X14282843Y-5100000D02*
G75*
G03*
X14282843Y-5100000I-282843J0D01*
G01*
X16470000Y-13752000D02*
X16932000Y-13518000D01*
X13529000Y-14435000D02*
X13885000Y-14411000D01*
X13484000Y-5365000D02*
X13544000Y-5432000D01*
X12223000Y-5821000D02*
X11785000Y-6082000D01*
D11*
D12*
X12473000Y-13044500D02*
X12702000Y-13273500D01*
X12702000Y-13044500D02*
X12473000Y-13273500D01*
X13822000Y-10809500D02*
X14051000Y-11038500D01*
X14051000Y-10809500D02*
X13822000Y-11038500D01*
X15170000Y-13044500D02*
X15399000Y-13273500D01*
X15399000Y-13044500D02*
X15170000Y-13273500D01*
D11*
X9955619Y-14750476D02*
X9955619Y-14550476D01*
X10003238Y-14550476D01*
X10031810Y-14560000D01*
X10050857Y-14579048D01*
X10060381Y-14598095D01*
X10069905Y-14636190D01*
X10069905Y-14664762D01*
X10060381Y-14702857D01*
X10050857Y-14721905D01*
X10031810Y-14740952D01*
X10003238Y-14750476D01*
X9955619Y-14750476D01*
X10155619Y-14750476D02*
X10155619Y-14617143D01*
X10155619Y-14655238D02*
X10165143Y-14636190D01*
X10174667Y-14626667D01*
X10193714Y-14617143D01*
X10212762Y-14617143D01*
X10279429Y-14750476D02*
X10279429Y-14617143D01*
X10279429Y-14550476D02*
X10269905Y-14560000D01*
X10279429Y-14569524D01*
X10288952Y-14560000D01*
X10279429Y-14550476D01*
X10279429Y-14569524D01*
X10403238Y-14750476D02*
X10384190Y-14740952D01*
X10374667Y-14721905D01*
X10374667Y-14550476D01*
X10508000Y-14750476D02*
X10488952Y-14740952D01*
X10479429Y-14721905D01*
X10479429Y-14550476D01*
X10736571Y-14750476D02*
X10736571Y-14550476D01*
X10803238Y-14693333D01*
X10869905Y-14550476D01*
X10869905Y-14750476D01*
X11050857Y-14750476D02*
X11050857Y-14645714D01*
X11041333Y-14626667D01*
X11022286Y-14617143D01*
X10984190Y-14617143D01*
X10965143Y-14626667D01*
X11050857Y-14740952D02*
X11031810Y-14750476D01*
X10984190Y-14750476D01*
X10965143Y-14740952D01*
X10955619Y-14721905D01*
X10955619Y-14702857D01*
X10965143Y-14683809D01*
X10984190Y-14674286D01*
X11031810Y-14674286D01*
X11050857Y-14664762D01*
X11146095Y-14617143D02*
X11146095Y-14817143D01*
X11146095Y-14626667D02*
X11165143Y-14617143D01*
X11203238Y-14617143D01*
X11222286Y-14626667D01*
X11231809Y-14636190D01*
X11241333Y-14655238D01*
X11241333Y-14712381D01*
X11231809Y-14731428D01*
X11222286Y-14740952D01*
X11203238Y-14750476D01*
X11165143Y-14750476D01*
X11146095Y-14740952D01*
X11327048Y-14731428D02*
X11336571Y-14740952D01*
X11327048Y-14750476D01*
X11317524Y-14740952D01*
X11327048Y-14731428D01*
X11327048Y-14750476D01*
X11327048Y-14626667D02*
X11336571Y-14636190D01*
X11327048Y-14645714D01*
X11317524Y-14636190D01*
X11327048Y-14626667D01*
X11327048Y-14645714D01*
X9498000Y-14980000D02*
X9698000Y-15180000D01*
X9698000Y-14980000D02*
X9498000Y-15180000D01*
X9946095Y-14989524D02*
X9955619Y-14980000D01*
X9974667Y-14970476D01*
X10022286Y-14970476D01*
X10041333Y-14980000D01*
X10050857Y-14989524D01*
X10060381Y-15008571D01*
X10060381Y-15027619D01*
X10050857Y-15056190D01*
X9936571Y-15170476D01*
X10060381Y-15170476D01*
X10146095Y-15151428D02*
X10155619Y-15160952D01*
X10146095Y-15170476D01*
X10136571Y-15160952D01*
X10146095Y-15151428D01*
X10146095Y-15170476D01*
X10231810Y-14989524D02*
X10241333Y-14980000D01*
X10260381Y-14970476D01*
X10308000Y-14970476D01*
X10327048Y-14980000D01*
X10336571Y-14989524D01*
X10346095Y-15008571D01*
X10346095Y-15027619D01*
X10336571Y-15056190D01*
X10222286Y-15170476D01*
X10346095Y-15170476D01*
X10441333Y-15170476D02*
X10479429Y-15170476D01*
X10498476Y-15160952D01*
X10508000Y-15151428D01*
X10527048Y-15122857D01*
X10536571Y-15084762D01*
X10536571Y-15008571D01*
X10527048Y-14989524D01*
X10517524Y-14980000D01*
X10498476Y-14970476D01*
X10460381Y-14970476D01*
X10441333Y-14980000D01*
X10431810Y-14989524D01*
X10422286Y-15008571D01*
X10422286Y-15056190D01*
X10431810Y-15075238D01*
X10441333Y-15084762D01*
X10460381Y-15094286D01*
X10498476Y-15094286D01*
X10517524Y-15084762D01*
X10527048Y-15075238D01*
X10536571Y-15056190D01*
X10660381Y-14970476D02*
X10679429Y-14970476D01*
X10698476Y-14980000D01*
X10708000Y-14989524D01*
X10717524Y-15008571D01*
X10727048Y-15046667D01*
X10727048Y-15094286D01*
X10717524Y-15132381D01*
X10708000Y-15151428D01*
X10698476Y-15160952D01*
X10679429Y-15170476D01*
X10660381Y-15170476D01*
X10641333Y-15160952D01*
X10631810Y-15151428D01*
X10622286Y-15132381D01*
X10612762Y-15094286D01*
X10612762Y-15046667D01*
X10622286Y-15008571D01*
X10631810Y-14989524D01*
X10641333Y-14980000D01*
X10660381Y-14970476D01*
X10812762Y-15170476D02*
X10812762Y-15037143D01*
X10812762Y-15056190D02*
X10822286Y-15046667D01*
X10841333Y-15037143D01*
X10869905Y-15037143D01*
X10888952Y-15046667D01*
X10898476Y-15065714D01*
X10898476Y-15170476D01*
X10898476Y-15065714D02*
X10908000Y-15046667D01*
X10927048Y-15037143D01*
X10955619Y-15037143D01*
X10974667Y-15046667D01*
X10984190Y-15065714D01*
X10984190Y-15170476D01*
X11079429Y-15170476D02*
X11079429Y-15037143D01*
X11079429Y-15056190D02*
X11088952Y-15046667D01*
X11108000Y-15037143D01*
X11136571Y-15037143D01*
X11155619Y-15046667D01*
X11165143Y-15065714D01*
X11165143Y-15170476D01*
X11165143Y-15065714D02*
X11174667Y-15046667D01*
X11193714Y-15037143D01*
X11222286Y-15037143D01*
X11241333Y-15046667D01*
X11250857Y-15065714D01*
X11250857Y-15170476D01*
X11641333Y-14960952D02*
X11469905Y-15218095D01*
X11898476Y-14970476D02*
X11917524Y-14970476D01*
X11936571Y-14980000D01*
X11946095Y-14989524D01*
X11955619Y-15008571D01*
X11965143Y-15046667D01*
X11965143Y-15094286D01*
X11955619Y-15132381D01*
X11946095Y-15151428D01*
X11936571Y-15160952D01*
X11917524Y-15170476D01*
X11898476Y-15170476D01*
X11879428Y-15160952D01*
X11869905Y-15151428D01*
X11860381Y-15132381D01*
X11850857Y-15094286D01*
X11850857Y-15046667D01*
X11860381Y-15008571D01*
X11869905Y-14989524D01*
X11879428Y-14980000D01*
X11898476Y-14970476D01*
X12050857Y-15151428D02*
X12060381Y-15160952D01*
X12050857Y-15170476D01*
X12041333Y-15160952D01*
X12050857Y-15151428D01*
X12050857Y-15170476D01*
X12184190Y-14970476D02*
X12203238Y-14970476D01*
X12222286Y-14980000D01*
X12231809Y-14989524D01*
X12241333Y-15008571D01*
X12250857Y-15046667D01*
X12250857Y-15094286D01*
X12241333Y-15132381D01*
X12231809Y-15151428D01*
X12222286Y-15160952D01*
X12203238Y-15170476D01*
X12184190Y-15170476D01*
X12165143Y-15160952D01*
X12155619Y-15151428D01*
X12146095Y-15132381D01*
X12136571Y-15094286D01*
X12136571Y-15046667D01*
X12146095Y-15008571D01*
X12155619Y-14989524D01*
X12165143Y-14980000D01*
X12184190Y-14970476D01*
X12346095Y-15170476D02*
X12384190Y-15170476D01*
X12403238Y-15160952D01*
X12412762Y-15151428D01*
X12431809Y-15122857D01*
X12441333Y-15084762D01*
X12441333Y-15008571D01*
X12431809Y-14989524D01*
X12422286Y-14980000D01*
X12403238Y-14970476D01*
X12365143Y-14970476D01*
X12346095Y-14980000D01*
X12336571Y-14989524D01*
X12327048Y-15008571D01*
X12327048Y-15056190D01*
X12336571Y-15075238D01*
X12346095Y-15084762D01*
X12365143Y-15094286D01*
X12403238Y-15094286D01*
X12422286Y-15084762D01*
X12431809Y-15075238D01*
X12441333Y-15056190D01*
X12565143Y-14970476D02*
X12584190Y-14970476D01*
X12603238Y-14980000D01*
X12612762Y-14989524D01*
X12622286Y-15008571D01*
X12631809Y-15046667D01*
X12631809Y-15094286D01*
X12622286Y-15132381D01*
X12612762Y-15151428D01*
X12603238Y-15160952D01*
X12584190Y-15170476D01*
X12565143Y-15170476D01*
X12546095Y-15160952D01*
X12536571Y-15151428D01*
X12527048Y-15132381D01*
X12517524Y-15094286D01*
X12517524Y-15046667D01*
X12527048Y-15008571D01*
X12536571Y-14989524D01*
X12546095Y-14980000D01*
X12565143Y-14970476D01*
X12708000Y-14989524D02*
X12717524Y-14980000D01*
X12736571Y-14970476D01*
X12784190Y-14970476D01*
X12803238Y-14980000D01*
X12812762Y-14989524D01*
X12822286Y-15008571D01*
X12822286Y-15027619D01*
X12812762Y-15056190D01*
X12698476Y-15170476D01*
X12822286Y-15170476D01*
X12898476Y-14970476D02*
X12898476Y-15008571D01*
X12974667Y-14970476D02*
X12974667Y-15008571D01*
X13269905Y-15246667D02*
X13260381Y-15237143D01*
X13241333Y-15208571D01*
X13231809Y-15189524D01*
X13222286Y-15160952D01*
X13212762Y-15113333D01*
X13212762Y-15075238D01*
X13222286Y-15027619D01*
X13231809Y-14999048D01*
X13241333Y-14980000D01*
X13260381Y-14951428D01*
X13269905Y-14941905D01*
X13327048Y-14970476D02*
X13450857Y-14970476D01*
X13384190Y-15046667D01*
X13412762Y-15046667D01*
X13431809Y-15056190D01*
X13441333Y-15065714D01*
X13450857Y-15084762D01*
X13450857Y-15132381D01*
X13441333Y-15151428D01*
X13431809Y-15160952D01*
X13412762Y-15170476D01*
X13355619Y-15170476D01*
X13336571Y-15160952D01*
X13327048Y-15151428D01*
X13688952Y-15170476D02*
X13688952Y-14970476D01*
X13774667Y-15170476D02*
X13774667Y-15065714D01*
X13765143Y-15046667D01*
X13746095Y-15037143D01*
X13717524Y-15037143D01*
X13698476Y-15046667D01*
X13688952Y-15056190D01*
X13898476Y-15170476D02*
X13879428Y-15160952D01*
X13869905Y-15151428D01*
X13860381Y-15132381D01*
X13860381Y-15075238D01*
X13869905Y-15056190D01*
X13879428Y-15046667D01*
X13898476Y-15037143D01*
X13927048Y-15037143D01*
X13946095Y-15046667D01*
X13955619Y-15056190D01*
X13965143Y-15075238D01*
X13965143Y-15132381D01*
X13955619Y-15151428D01*
X13946095Y-15160952D01*
X13927048Y-15170476D01*
X13898476Y-15170476D01*
X14079428Y-15170476D02*
X14060381Y-15160952D01*
X14050857Y-15141905D01*
X14050857Y-14970476D01*
X14231809Y-15160952D02*
X14212762Y-15170476D01*
X14174667Y-15170476D01*
X14155619Y-15160952D01*
X14146095Y-15141905D01*
X14146095Y-15065714D01*
X14155619Y-15046667D01*
X14174667Y-15037143D01*
X14212762Y-15037143D01*
X14231809Y-15046667D01*
X14241333Y-15065714D01*
X14241333Y-15084762D01*
X14146095Y-15103809D01*
X14317524Y-15160952D02*
X14336571Y-15170476D01*
X14374667Y-15170476D01*
X14393714Y-15160952D01*
X14403238Y-15141905D01*
X14403238Y-15132381D01*
X14393714Y-15113333D01*
X14374667Y-15103809D01*
X14346095Y-15103809D01*
X14327048Y-15094286D01*
X14317524Y-15075238D01*
X14317524Y-15065714D01*
X14327048Y-15046667D01*
X14346095Y-15037143D01*
X14374667Y-15037143D01*
X14393714Y-15046667D01*
X14469905Y-15246667D02*
X14479428Y-15237143D01*
X14498476Y-15208571D01*
X14508000Y-15189524D01*
X14517524Y-15160952D01*
X14527048Y-15113333D01*
X14527048Y-15075238D01*
X14517524Y-15027619D01*
X14508000Y-14999048D01*
X14498476Y-14980000D01*
X14479428Y-14951428D01*
X14469905Y-14941905D01*
X14831809Y-15246667D02*
X14822286Y-15237143D01*
X14803238Y-15208571D01*
X14793714Y-15189524D01*
X14784190Y-15160952D01*
X14774667Y-15113333D01*
X14774667Y-15075238D01*
X14784190Y-15027619D01*
X14793714Y-14999048D01*
X14803238Y-14980000D01*
X14822286Y-14951428D01*
X14831809Y-14941905D01*
X14908000Y-15037143D02*
X14908000Y-15170476D01*
X14908000Y-15056190D02*
X14917524Y-15046667D01*
X14936571Y-15037143D01*
X14965143Y-15037143D01*
X14984190Y-15046667D01*
X14993714Y-15065714D01*
X14993714Y-15170476D01*
X15117524Y-15170476D02*
X15098476Y-15160952D01*
X15088952Y-15151428D01*
X15079428Y-15132381D01*
X15079428Y-15075238D01*
X15088952Y-15056190D01*
X15098476Y-15046667D01*
X15117524Y-15037143D01*
X15146095Y-15037143D01*
X15165143Y-15046667D01*
X15174667Y-15056190D01*
X15184190Y-15075238D01*
X15184190Y-15132381D01*
X15174667Y-15151428D01*
X15165143Y-15160952D01*
X15146095Y-15170476D01*
X15117524Y-15170476D01*
X15241333Y-15037143D02*
X15317524Y-15037143D01*
X15269905Y-14970476D02*
X15269905Y-15141905D01*
X15279428Y-15160952D01*
X15298476Y-15170476D01*
X15317524Y-15170476D01*
X15536571Y-15037143D02*
X15536571Y-15237143D01*
X15536571Y-15046667D02*
X15555619Y-15037143D01*
X15593714Y-15037143D01*
X15612762Y-15046667D01*
X15622286Y-15056190D01*
X15631809Y-15075238D01*
X15631809Y-15132381D01*
X15622286Y-15151428D01*
X15612762Y-15160952D01*
X15593714Y-15170476D01*
X15555619Y-15170476D01*
X15536571Y-15160952D01*
X15746095Y-15170476D02*
X15727048Y-15160952D01*
X15717524Y-15141905D01*
X15717524Y-14970476D01*
X15908000Y-15170476D02*
X15908000Y-15065714D01*
X15898476Y-15046667D01*
X15879428Y-15037143D01*
X15841333Y-15037143D01*
X15822286Y-15046667D01*
X15908000Y-15160952D02*
X15888952Y-15170476D01*
X15841333Y-15170476D01*
X15822286Y-15160952D01*
X15812762Y-15141905D01*
X15812762Y-15122857D01*
X15822286Y-15103809D01*
X15841333Y-15094286D01*
X15888952Y-15094286D01*
X15908000Y-15084762D01*
X15974667Y-15037143D02*
X16050857Y-15037143D01*
X16003238Y-14970476D02*
X16003238Y-15141905D01*
X16012762Y-15160952D01*
X16031809Y-15170476D01*
X16050857Y-15170476D01*
X16193714Y-15160952D02*
X16174667Y-15170476D01*
X16136571Y-15170476D01*
X16117524Y-15160952D01*
X16108000Y-15141905D01*
X16108000Y-15065714D01*
X16117524Y-15046667D01*
X16136571Y-15037143D01*
X16174667Y-15037143D01*
X16193714Y-15046667D01*
X16203238Y-15065714D01*
X16203238Y-15084762D01*
X16108000Y-15103809D01*
X16374667Y-15170476D02*
X16374667Y-14970476D01*
X16374667Y-15160952D02*
X16355619Y-15170476D01*
X16317524Y-15170476D01*
X16298476Y-15160952D01*
X16288952Y-15151428D01*
X16279428Y-15132381D01*
X16279428Y-15075238D01*
X16288952Y-15056190D01*
X16298476Y-15046667D01*
X16317524Y-15037143D01*
X16355619Y-15037143D01*
X16374667Y-15046667D01*
X16450857Y-15246667D02*
X16460381Y-15237143D01*
X16479428Y-15208571D01*
X16488952Y-15189524D01*
X16498476Y-15160952D01*
X16508000Y-15113333D01*
X16508000Y-15075238D01*
X16498476Y-15027619D01*
X16488952Y-14999048D01*
X16479428Y-14980000D01*
X16460381Y-14951428D01*
X16450857Y-14941905D01*
M02*
