  0
SECTION
  2
HEADER
  9
$ANGBASE
  50
0.0
  9
$ANGDIR
  70
1
  9
$MEASUREMENT
  70
0
  0
ENDSEC
  0
SECTION
  2
TABLES
  0
TABLE
  2
LTYPE
  70
4
  0
LTYPE
  5
40F
  2
CONTINUOUS
  70
0
  3
Solid line
  72
65
  73
0
  40
0.0
  0
LTYPE
  5
410
  2
DASHDOT
 70
0
  3
Dash Dot ____ _ ____ _
 72
65
 73
4
 40
2.0
 49
1.25
 49
-0.25
 49
0.25
 49
-0.25
  0
LTYPE
  5
411
  2
DASHED
 70
0
  3
Dashed __ __ __ __ __
 72
65
 73
2
 40
0.75
 49
0.5
 49
-0.25
  0
LTYPE
  5
43B
  2
DOTTED
 70
0
  3
Dotted .  .  .  .
 72
65
 73
2
 40
0.2
 49
0.0
 49
-0.2
  0
ENDTAB
  0
TABLE
  2
STYLE
  70
4
  0
STYLE
  2
KICAD
  70
0
  40
0
  41
1
  42
1
  50
0
  71
0
  3
isocp.shx
  0
STYLE
  2
KICADB
  70
0
  40
0
  41
1
  42
1
  50
0
  71
0
  3
isocp.shx
  0
STYLE
  2
KICADI
  70
0
  40
0
  41
1
  42
1
  50
15
  71
0
  3
isocp.shx
  0
STYLE
  2
KICADBI
  70
0
  40
0
  41
1
  42
1
  50
15
  71
0
  3
isocp.shx
  0
ENDTAB
  0
TABLE
  2
LAYER
  70
1
  0
LAYER
  2
BLACK
  70
0
  62
7
  6
CONTINUOUS
  0
ENDTAB
  0
ENDSEC
  0
SECTION
  2
ENTITIES
0
LINE
8
BLACK
6
CONTINUOUS
10
5.76969
20
-1.90787
11
5.74488
21
-1.88898
0
LINE
8
BLACK
6
CONTINUOUS
10
4.31614
20
-2.67717
11
4.20197
21
-2.80276
0
LINE
8
BLACK
6
CONTINUOUS
10
5.46654
20
-5.67362
11
5.73307
21
-5.65
0
LINE
8
BLACK
6
CONTINUOUS
10
5.74488
20
-1.88898
11
5.62795
21
-1.80118
0
LINE
8
BLACK
6
CONTINUOUS
10
3.86299
20
-4.44724
11
3.92323
21
-4.67283
0
LINE
8
BLACK
6
CONTINUOUS
10
6.0185
20
-2.13346
11
5.91024
21
-2.05551
0
LINE
8
BLACK
6
CONTINUOUS
10
6.20551
20
-5.51654
11
6.48425
21
-5.41417
0
LINE
8
BLACK
6
CONTINUOUS
10
6.31024
20
-2.25354
11
6.07087
21
-2.19252
0
LINE
8
BLACK
6
CONTINUOUS
10
4.98071
20
-2.21299
11
4.8122
21
-2.29173
0
LINE
8
BLACK
6
CONTINUOUS
10
3.92323
20
-4.67283
11
4.00079
21
-4.90197
0
LINE
8
BLACK
6
CONTINUOUS
10
4.47835
20
-2.52244
11
4.31614
21
-2.67717
0
LINE
8
BLACK
6
CONTINUOUS
10
5.1252
20
-2.16575
11
4.98071
21
-2.21299
0
LINE
8
BLACK
6
CONTINUOUS
10
5.73307
20
-5.65
11
5.93504
21
-5.60157
0
LINE
8
BLACK
6
CONTINUOUS
10
7.41575
20
-3.87244
11
7.42598
21
-3.77323
0
LINE
8
BLACK
6
CONTINUOUS
10
5.52835
20
-1.77913
11
5.39646
21
-1.81732
0
LINE
8
BLACK
6
CONTINUOUS
10
6.92913
20
-5.17402
11
7.00157
21
-5.08543
0
LINE
8
BLACK
6
CONTINUOUS
10
4.02283
20
-3.06772
11
3.98661
21
-3.18583
0
LINE
8
BLACK
6
CONTINUOUS
10
5.84016
20
-2.00197
11
5.76969
21
-1.90787
0
LINE
8
BLACK
6
CONTINUOUS
10
4.07205
20
-2.99567
11
4.02283
21
-3.06772
0
LINE
8
BLACK
6
CONTINUOUS
10
5.2815
20
-2.04567
11
5.30866
21
-2.1122
0
LINE
8
BLACK
6
CONTINUOUS
10
7.3248
20
-3.31772
11
7.24449
21
-3.09449
0
LINE
8
BLACK
6
CONTINUOUS
10
4.00079
20
-4.90197
11
4.12598
21
-5.08622
0
LINE
8
BLACK
6
CONTINUOUS
10
5.91024
20
-2.05551
11
5.84016
21
-2.00197
0
LINE
8
BLACK
6
CONTINUOUS
10
3.82008
20
-4.02205
11
3.82598
21
-4.23307
0
LINE
8
BLACK
6
CONTINUOUS
10
3.98661
20
-3.18583
11
3.89449
21
-3.4878
0
LINE
8
BLACK
6
CONTINUOUS
10
4.92047
20
-5.62953
11
5.18504
21
-5.67441
0
LINE
8
BLACK
6
CONTINUOUS
10
3.83189
20
-3.75827
11
3.82008
21
-4.02205
0
LINE
8
BLACK
6
CONTINUOUS
10
5.62795
20
-1.80118
11
5.52835
21
-1.77913
0
LINE
8
BLACK
6
CONTINUOUS
10
7.24449
20
-3.09449
11
7.15472
21
-2.92126
0
LINE
8
BLACK
6
CONTINUOUS
10
6.52598
20
-2.3252
11
6.31024
21
-2.25354
0
LINE
8
BLACK
6
CONTINUOUS
10
5.93504
20
-5.60157
11
6.20551
21
-5.51654
0
LINE
8
BLACK
6
CONTINUOUS
10
7.04331
20
-5.02953
11
7.15906
21
-4.86024
0
LINE
8
BLACK
6
CONTINUOUS
10
5.28819
20
-1.94409
11
5.2815
21
-2.04567
0
LINE
8
BLACK
6
CONTINUOUS
10
7.34843
20
-4.40315
11
7.41575
21
-3.87244
0
LINE
8
BLACK
6
CONTINUOUS
10
5.34488
20
-1.8748
11
5.28819
21
-1.94409
0
LINE
8
BLACK
6
CONTINUOUS
10
3.89449
20
-3.4878
11
3.83189
21
-3.75827
0
LINE
8
BLACK
6
CONTINUOUS
10
6.92047
20
-2.56614
11
6.77008
21
-2.47677
0
LINE
8
BLACK
6
CONTINUOUS
10
7.32126
20
-4.54331
11
7.34843
21
-4.40315
0
LINE
8
BLACK
6
CONTINUOUS
10
4.63976
20
-2.39449
11
4.47835
21
-2.52244
0
LINE
8
BLACK
6
CONTINUOUS
10
5.39646
20
-1.81732
11
5.34488
21
-1.8748
0
LINE
8
BLACK
6
CONTINUOUS
10
7.42598
20
-3.77323
11
7.38819
21
-3.60512
0
LINE
8
BLACK
6
CONTINUOUS
10
7.15906
20
-4.86024
11
7.2122
21
-4.78937
0
LINE
8
BLACK
6
CONTINUOUS
10
3.82598
20
-4.23307
11
3.86299
21
-4.44724
0
LINE
8
BLACK
6
CONTINUOUS
10
5.33228
20
-2.13858
11
5.30669
21
-2.14291
0
LINE
8
BLACK
6
CONTINUOUS
10
4.45039
20
-5.40394
11
4.70236
21
-5.55276
0
LINE
8
BLACK
6
CONTINUOUS
10
6.66614
20
-5.32205
11
6.92913
21
-5.17402
0
LINE
8
BLACK
6
CONTINUOUS
10
6.07087
20
-2.19252
11
6.0185
21
-2.13346
0
LINE
8
BLACK
6
CONTINUOUS
10
5.18504
20
-5.67441
11
5.32638
21
-5.68307
0
LINE
8
BLACK
6
CONTINUOUS
10
7.00157
20
-5.08543
11
7.04331
21
-5.02953
0
LINE
8
BLACK
6
CONTINUOUS
10
4.70236
20
-5.55276
11
4.92047
21
-5.62953
0
LINE
8
BLACK
6
CONTINUOUS
10
7.15472
20
-2.92126
11
6.92047
21
-2.56614
0
LINE
8
BLACK
6
CONTINUOUS
10
7.2122
20
-4.78937
11
7.32126
21
-4.54331
0
LINE
8
BLACK
6
CONTINUOUS
10
4.12598
20
-5.08622
11
4.27717
21
-5.27362
0
LINE
8
BLACK
6
CONTINUOUS
10
6.77008
20
-2.47677
11
6.52598
21
-2.3252
0
LINE
8
BLACK
6
CONTINUOUS
10
4.20197
20
-2.80276
11
4.07205
21
-2.99567
0
LINE
8
BLACK
6
CONTINUOUS
10
7.38819
20
-3.60512
11
7.3248
21
-3.31772
0
LINE
8
BLACK
6
CONTINUOUS
10
4.27717
20
-5.27362
11
4.45039
21
-5.40394
0
LINE
8
BLACK
6
CONTINUOUS
10
5.30669
20
-2.14291
11
5.1252
21
-2.16575
0
CIRCLE
8
BLACK
10
5.51181
20
-2.00787
40
0.111355
0
LINE
8
BLACK
6
CONTINUOUS
10
6.48425
20
-5.41417
11
6.66614
21
-5.32205
0
LINE
8
BLACK
6
CONTINUOUS
10
5.32638
20
-5.68307
11
5.46654
21
-5.67362
0
LINE
8
BLACK
6
CONTINUOUS
10
5.30866
20
-2.1122
11
5.33228
21
-2.13858
0
LINE
8
BLACK
6
CONTINUOUS
10
4.8122
20
-2.29173
11
4.63976
21
-2.39449
  0
ENDSEC
  0
EOF
