<?xml version="1.0" standalone="no"?>
 <!DOCTYPE svg PUBLIC "-//W3C//DTD SVG 1.1//EN" 
 "http://www.w3.org/Graphics/SVG/1.1/DTD/svg11.dtd"> 
<svg
  xmlns:svg="http://www.w3.org/2000/svg"
  xmlns="http://www.w3.org/2000/svg"
  xmlns:xlink="http://www.w3.org/1999/xlink"
  version="1.1"
  width="29.700220cm" height="21.000720cm" viewBox="0 0 297002200 210007200">
<title>SVG Picture created as dcpunks31-Edge_Cuts.svg date 2022/12/04 17:51:37 </title>
  <desc>Picture generated by PCBNEW </desc>
<g style="fill:#000000; fill-opacity:1.000000;stroke:#000000; stroke-opacity:1.000000;
stroke-linecap:round; stroke-linejoin:round;"
 transform="translate(0 0) scale(1 1)">
</g>
<g style="fill:#000000; fill-opacity:0.0; 
stroke:#000000; stroke-width:0.000000; stroke-opacity:1; 
stroke-linecap:round; stroke-linejoin:round;">
</g>
<g style="fill:#000000; fill-opacity:0.0; 
stroke:#000000; stroke-width:100000.000000; stroke-opacity:1; 
stroke-linecap:round; stroke-linejoin:round;">
<path d="M146550000 48460000
L145920000 47980000
" />
<path d="M109630000 68000000
L106730000 71190000
" />
<path d="M138850000 144110000
L145620000 143510000
" />
<path d="M145920000 47980000
L142950000 45750000
" />
<path d="M98120000 112960000
L99650000 118690000
" />
<path d="M152870000 54190000
L150120000 52210000
" />
<path d="M157620000 140120000
L164700000 137520000
" />
<path d="M160280000 57240000
L154200000 55690000
" />
<path d="M126510000 56210000
L122230000 58210000
" />
<path d="M99650000 118690000
L101620000 124510000
" />
<path d="M113750000 64070000
L109630000 68000000
" />
<path d="M130180000 55010000
L126510000 56210000
" />
<path d="M145620000 143510000
L150750000 142280000
" />
<path d="M188360000 98360000
L188620000 95840000
" />
<path d="M140420000 45190000
L137070000 46160000
" />
<path d="M176000000 131420000
L177840000 129170000
" />
<path d="M102180000 77920000
L101260000 80920000
" />
<path d="M148340000 50850000
L146550000 48460000
" />
<path d="M103430000 76090000
L102180000 77920000
" />
<path d="M134150000 51960000
L134840000 53650000
" />
<path d="M186050000 84270000
L184010000 78600000
" />
<path d="M101620000 124510000
L104800000 129190000
" />
<path d="M150120000 52210000
L148340000 50850000
" />
<path d="M97030000 102160000
L97180000 107520000
" />
<path d="M101260000 80920000
L98920000 88590000
" />
<path d="M124980000 142990000
L131700000 144130000
" />
<path d="M97330000 95460000
L97030000 102160000
" />
<path d="M142950000 45750000
L140420000 45190000
" />
<path d="M184010000 78600000
L181730000 74200000
" />
<path d="M165760000 59060000
L160280000 57240000
" />
<path d="M150750000 142280000
L157620000 140120000
" />
<path d="M178900000 127750000
L181840000 123450000
" />
<path d="M134320000 49380000
L134150000 51960000
" />
<path d="M186650000 111840000
L188360000 98360000
" />
<path d="M135760000 47620000
L134320000 49380000
" />
<path d="M98920000 88590000
L97330000 95460000
" />
<path d="M175780000 65180000
L171960000 62910000
" />
<path d="M185960000 115400000
L186650000 111840000
" />
<path d="M117850000 60820000
L113750000 64070000
" />
<path d="M137070000 46160000
L135760000 47620000
" />
<path d="M188620000 95840000
L187660000 91570000
" />
<path d="M181840000 123450000
L183190000 121650000
" />
<path d="M97180000 107520000
L98120000 112960000
" />
<path d="M135440000 54320000
L134790000 54430000
" />
<path d="M113040000 137260000
L119440000 141040000
" />
<path d="M169320000 135180000
L176000000 131420000
" />
<path d="M154200000 55690000
L152870000 54190000
" />
<path d="M131700000 144130000
L135290000 144350000
" />
<path d="M177840000 129170000
L178900000 127750000
" />
<path d="M119440000 141040000
L124980000 142990000
" />
<path d="M181730000 74200000
L175780000 65180000
" />
<path d="M183190000 121650000
L185960000 115400000
" />
<path d="M104800000 129190000
L108640000 133950000
" />
<path d="M171960000 62910000
L165760000 59060000
" />
<path d="M106730000 71190000
L103430000 76090000
" />
<path d="M187660000 91570000
L186050000 84270000
" />
<path d="M108640000 133950000
L113040000 137260000
" />
<path d="M134790000 54430000
L130180000 55010000
" />
<circle cx="140000000.000000" cy="51000000.000000" r="2828427.000000" /> 
<path d="M164700000 137520000
L169320000 135180000
" />
<path d="M135290000 144350000
L138850000 144110000
" />
<path d="M134840000 53650000
L135440000 54320000
" />
<path d="M122230000 58210000
L117850000 60820000
" />
<g >
</g>
<g >
</g>
<g >
</g>
<g >
</g>
<g >
</g>
<g >
</g>
<g >
</g>
<g >
</g>
<g >
</g>
<g >
</g>
<g >
</g>
<g >
</g>
<g >
</g>
<g >
</g>
<g >
</g>
<g >
</g>
<g >
</g>
<g >
</g>
<g >
</g>
<g >
</g>
<g >
</g>
<g >
</g>
<g >
</g>
<g >
</g>
<g >
</g>
<g >
</g>
<g >
</g>
<g >
</g>
<g >
</g>
<g >
</g>
<g >
</g>
<g >
</g>
<g >
</g>
<g >
</g>
<g >
</g>
<g >
</g>
<g >
</g>
<g >
</g>
<g >
</g>
<g >
</g>
</g> 
</svg>
