%TF.GenerationSoftware,KiCad,Pcbnew,6.0.9*%
%TF.CreationDate,2022-12-04T17:51:41-08:00*%
%TF.ProjectId,dcpunks31,64637075-6e6b-4733-9331-2e6b69636164,rev?*%
%TF.SameCoordinates,Original*%
%TF.FileFunction,Profile,NP*%
%FSLAX46Y46*%
G04 Gerber Fmt 4.6, Leading zero omitted, Abs format (unit mm)*
G04 Created by KiCad (PCBNEW 6.0.9) date 2022-12-04 17:51:41*
%MOMM*%
%LPD*%
G01*
G04 APERTURE LIST*
%TA.AperFunction,Profile*%
%ADD10C,0.100000*%
%TD*%
G04 APERTURE END LIST*
D10*
X146550000Y-48460000D02*
X145920000Y-47980000D01*
X109630000Y-68000000D02*
X106730000Y-71190000D01*
X138850000Y-144110000D02*
X145620000Y-143510000D01*
X145920000Y-47980000D02*
X142950000Y-45750000D01*
X98120000Y-112960000D02*
X99650000Y-118690000D01*
X152870000Y-54190000D02*
X150120000Y-52210000D01*
X157620000Y-140120000D02*
X164700000Y-137520000D01*
X160280000Y-57240000D02*
X154200000Y-55690000D01*
X126510000Y-56210000D02*
X122230000Y-58210000D01*
X99650000Y-118690000D02*
X101620000Y-124510000D01*
X113750000Y-64070000D02*
X109630000Y-68000000D01*
X130180000Y-55010000D02*
X126510000Y-56210000D01*
X145620000Y-143510000D02*
X150750000Y-142280000D01*
X188360000Y-98360000D02*
X188620000Y-95840000D01*
X140420000Y-45190000D02*
X137070000Y-46160000D01*
X176000000Y-131420000D02*
X177840000Y-129170000D01*
X102180000Y-77920000D02*
X101260000Y-80920000D01*
X148340000Y-50850000D02*
X146550000Y-48460000D01*
X103430000Y-76090000D02*
X102180000Y-77920000D01*
X134150000Y-51960000D02*
X134840000Y-53650000D01*
X186050000Y-84270000D02*
X184010000Y-78600000D01*
X101620000Y-124510000D02*
X104800000Y-129190000D01*
X150120000Y-52210000D02*
X148340000Y-50850000D01*
X97030000Y-102160000D02*
X97180000Y-107520000D01*
X101260000Y-80920000D02*
X98920000Y-88590000D01*
X124980000Y-142990000D02*
X131700000Y-144130000D01*
X97330000Y-95460000D02*
X97030000Y-102160000D01*
X142950000Y-45750000D02*
X140420000Y-45190000D01*
X184010000Y-78600000D02*
X181730000Y-74200000D01*
X165760000Y-59060000D02*
X160280000Y-57240000D01*
X150750000Y-142280000D02*
X157620000Y-140120000D01*
X178900000Y-127750000D02*
X181840000Y-123450000D01*
X134320000Y-49380000D02*
X134150000Y-51960000D01*
X186650000Y-111840000D02*
X188360000Y-98360000D01*
X135760000Y-47620000D02*
X134320000Y-49380000D01*
X98920000Y-88590000D02*
X97330000Y-95460000D01*
X175780000Y-65180000D02*
X171960000Y-62910000D01*
X185960000Y-115400000D02*
X186650000Y-111840000D01*
X117850000Y-60820000D02*
X113750000Y-64070000D01*
X137070000Y-46160000D02*
X135760000Y-47620000D01*
X188620000Y-95840000D02*
X187660000Y-91570000D01*
X181840000Y-123450000D02*
X183190000Y-121650000D01*
X97180000Y-107520000D02*
X98120000Y-112960000D01*
X135440000Y-54320000D02*
X134790000Y-54430000D01*
X113040000Y-137260000D02*
X119440000Y-141040000D01*
X169320000Y-135180000D02*
X176000000Y-131420000D01*
X154200000Y-55690000D02*
X152870000Y-54190000D01*
X131700000Y-144130000D02*
X135290000Y-144350000D01*
X177840000Y-129170000D02*
X178900000Y-127750000D01*
X119440000Y-141040000D02*
X124980000Y-142990000D01*
X181730000Y-74200000D02*
X175780000Y-65180000D01*
X183190000Y-121650000D02*
X185960000Y-115400000D01*
X104800000Y-129190000D02*
X108640000Y-133950000D01*
X171960000Y-62910000D02*
X165760000Y-59060000D01*
X106730000Y-71190000D02*
X103430000Y-76090000D01*
X187660000Y-91570000D02*
X186050000Y-84270000D01*
X108640000Y-133950000D02*
X113040000Y-137260000D01*
X134790000Y-54430000D02*
X130180000Y-55010000D01*
X142828427Y-51000000D02*
G75*
G03*
X142828427Y-51000000I-2828427J0D01*
G01*
X164700000Y-137520000D02*
X169320000Y-135180000D01*
X135290000Y-144350000D02*
X138850000Y-144110000D01*
X134840000Y-53650000D02*
X135440000Y-54320000D01*
X122230000Y-58210000D02*
X117850000Y-60820000D01*
M02*
